solid 
facet normal 0.000000e+00 -0.000000e+00 1.000000e+00
 outer loop
  vertex 6.749694e-01 4.179995e-01 0.000000e+00
  vertex 7.995137e-01 6.006479e-01 0.000000e+00
  vertex 5.507283e-01 6.039464e-01 0.000000e+00
 endloop
endfacet
facet normal 0.000000e+00 0.000000e+00 1.000000e+00
 outer loop
  vertex -7.478945e-11 -7.870695e-01 0.000000e+00
  vertex -1.865237e-01 -9.824505e-01 0.000000e+00
  vertex -1.579045e-09 -1.000000e+00 0.000000e+00
 endloop
endfacet
facet normal -0.000000e+00 0.000000e+00 1.000000e+00
 outer loop
  vertex 5.507283e-01 6.039464e-01 0.000000e+00
  vertex 7.995137e-01 6.006479e-01 0.000000e+00
  vertex 6.587220e-01 7.523864e-01 0.000000e+00
 endloop
endfacet
facet normal 0.000000e+00 0.000000e+00 1.000000e+00
 outer loop
  vertex 6.587220e-01 7.523864e-01 0.000000e+00
  vertex 4.968209e-01 8.678531e-01 0.000000e+00
  vertex 5.507283e-01 6.039464e-01 0.000000e+00
 endloop
endfacet
facet normal -0.000000e+00 0.000000e+00 1.000000e+00
 outer loop
  vertex -5.586651e-01 -8.293934e-01 0.000000e+00
  vertex -3.785435e-01 -9.255835e-01 0.000000e+00
  vertex -4.329606e-01 -6.907404e-01 0.000000e+00
 endloop
endfacet
facet normal 0.000000e+00 0.000000e+00 1.000000e+00
 outer loop
  vertex -7.013838e-01 -3.567007e-01 0.000000e+00
  vertex -9.292287e-01 -3.695051e-01 0.000000e+00
  vertex -8.341573e-01 -5.515267e-01 0.000000e+00
 endloop
endfacet
facet normal -0.000000e+00 0.000000e+00 1.000000e+00
 outer loop
  vertex -1.062828e-01 9.943359e-01 0.000000e+00
  vertex 6.159375e-10 7.950347e-01 0.000000e+00
  vertex 1.062828e-01 9.943359e-01 0.000000e+00
 endloop
endfacet
facet normal 0.000000e+00 0.000000e+00 1.000000e+00
 outer loop
  vertex -2.385827e-01 4.308115e-01 0.000000e+00
  vertex -1.198305e-01 2.292812e-01 0.000000e+00
  vertex 1.113997e-10 4.109784e-01 0.000000e+00
 endloop
endfacet
facet normal 0.000000e+00 0.000000e+00 1.000000e+00
 outer loop
  vertex 2.209340e-01 7.863564e-01 0.000000e+00
  vertex 1.062828e-01 9.943359e-01 0.000000e+00
  vertex 6.159375e-10 7.950347e-01 0.000000e+00
 endloop
endfacet
facet normal 0.000000e+00 0.000000e+00 1.000000e+00
 outer loop
  vertex 3.470923e-01 -1.601840e-01 0.000000e+00
  vertex 5.813373e-01 -1.587260e-01 0.000000e+00
  vertex 4.812195e-01 2.702752e-02 0.000000e+00
 endloop
endfacet
facet normal 0.000000e+00 -0.000000e+00 1.000000e+00
 outer loop
  vertex 9.849739e-01 -1.727034e-01 0.000000e+00
  vertex 9.997194e-01 2.368974e-02 0.000000e+00
  vertex 7.993196e-01 -1.561411e-01 0.000000e+00
 endloop
endfacet
facet normal 0.000000e+00 0.000000e+00 1.000000e+00
 outer loop
  vertex 7.993196e-01 -1.561411e-01 0.000000e+00
  vertex 9.292287e-01 -3.695051e-01 0.000000e+00
  vertex 9.849739e-01 -1.727034e-01 0.000000e+00
 endloop
endfacet
facet normal 0.000000e+00 0.000000e+00 1.000000e+00
 outer loop
  vertex 7.995137e-01 6.006479e-01 0.000000e+00
  vertex 6.749694e-01 4.179995e-01 0.000000e+00
  vertex 9.070877e-01 4.209416e-01 0.000000e+00
 endloop
endfacet
facet normal 0.000000e+00 0.000000e+00 1.000000e+00
 outer loop
  vertex 7.359907e-01 3.246227e-02 0.000000e+00
  vertex 7.993196e-01 -1.561411e-01 0.000000e+00
  vertex 9.997194e-01 2.368974e-02 0.000000e+00
 endloop
endfacet
facet normal -0.000000e+00 0.000000e+00 1.000000e+00
 outer loop
  vertex 4.812195e-01 2.702752e-02 0.000000e+00
  vertex 5.813373e-01 -1.587260e-01 0.000000e+00
  vertex 7.359907e-01 3.246227e-02 0.000000e+00
 endloop
endfacet
facet normal 0.000000e+00 0.000000e+00 1.000000e+00
 outer loop
  vertex 5.813373e-01 -1.587260e-01 0.000000e+00
  vertex 7.993196e-01 -1.561411e-01 0.000000e+00
  vertex 7.359907e-01 3.246227e-02 0.000000e+00
 endloop
endfacet
facet normal 0.000000e+00 0.000000e+00 1.000000e+00
 outer loop
  vertex 1.865237e-01 -9.824505e-01 0.000000e+00
  vertex -7.478945e-11 -7.870695e-01 0.000000e+00
  vertex -1.579045e-09 -1.000000e+00 0.000000e+00
 endloop
endfacet
facet normal 0.000000e+00 -0.000000e+00 1.000000e+00
 outer loop
  vertex -5.586651e-01 -8.293934e-01 0.000000e+00
  vertex -4.329606e-01 -6.907404e-01 0.000000e+00
  vertex -7.069310e-01 -7.072825e-01 0.000000e+00
 endloop
endfacet
facet normal 0.000000e+00 0.000000e+00 1.000000e+00
 outer loop
  vertex -4.812195e-01 2.702752e-02 0.000000e+00
  vertex -5.687687e-01 2.160192e-01 0.000000e+00
  vertex -7.359907e-01 3.246227e-02 0.000000e+00
 endloop
endfacet
facet normal 0.000000e+00 -0.000000e+00 1.000000e+00
 outer loop
  vertex -7.359907e-01 3.246227e-02 0.000000e+00
  vertex -5.687687e-01 2.160192e-01 0.000000e+00
  vertex -7.830104e-01 2.241742e-01 0.000000e+00
 endloop
endfacet
facet normal 0.000000e+00 0.000000e+00 1.000000e+00
 outer loop
  vertex -7.830104e-01 2.241742e-01 0.000000e+00
  vertex -9.997194e-01 2.368974e-02 0.000000e+00
  vertex -7.359907e-01 3.246227e-02 0.000000e+00
 endloop
endfacet
facet normal 0.000000e+00 0.000000e+00 1.000000e+00
 outer loop
  vertex -7.830104e-01 2.241742e-01 0.000000e+00
  vertex -9.760328e-01 2.176234e-01 0.000000e+00
  vertex -9.997194e-01 2.368974e-02 0.000000e+00
 endloop
endfacet
facet normal 0.000000e+00 0.000000e+00 1.000000e+00
 outer loop
  vertex -9.070877e-01 4.209416e-01 0.000000e+00
  vertex -9.760328e-01 2.176234e-01 0.000000e+00
  vertex -7.830104e-01 2.241742e-01 0.000000e+00
 endloop
endfacet
facet normal -0.000000e+00 0.000000e+00 1.000000e+00
 outer loop
  vertex -3.470923e-01 -1.601840e-01 0.000000e+00
  vertex -2.212086e-01 -3.492078e-01 0.000000e+00
  vertex -1.121556e-01 -1.569016e-01 0.000000e+00
 endloop
endfacet
facet normal 0.000000e+00 0.000000e+00 1.000000e+00
 outer loop
  vertex -1.121556e-01 -1.569016e-01 0.000000e+00
  vertex -2.212086e-01 -3.492078e-01 0.000000e+00
  vertex 2.648355e-11 -3.621064e-01 0.000000e+00
 endloop
endfacet
facet normal 0.000000e+00 -0.000000e+00 1.000000e+00
 outer loop
  vertex -3.274774e-01 -5.283964e-01 0.000000e+00
  vertex -2.212086e-01 -3.492078e-01 0.000000e+00
  vertex -4.626016e-01 -3.499187e-01 0.000000e+00
 endloop
endfacet
facet normal 0.000000e+00 0.000000e+00 1.000000e+00
 outer loop
  vertex -4.626016e-01 -3.499187e-01 0.000000e+00
  vertex -2.212086e-01 -3.492078e-01 0.000000e+00
  vertex -3.470923e-01 -1.601840e-01 0.000000e+00
 endloop
endfacet
facet normal 0.000000e+00 0.000000e+00 1.000000e+00
 outer loop
  vertex -2.209340e-01 7.863564e-01 0.000000e+00
  vertex 6.159375e-10 7.950347e-01 0.000000e+00
  vertex -1.062828e-01 9.943359e-01 0.000000e+00
 endloop
endfacet
facet normal 0.000000e+00 0.000000e+00 1.000000e+00
 outer loop
  vertex -1.062828e-01 9.943359e-01 0.000000e+00
  vertex -3.164207e-01 9.486190e-01 0.000000e+00
  vertex -2.209340e-01 7.863564e-01 0.000000e+00
 endloop
endfacet
facet normal 0.000000e+00 0.000000e+00 1.000000e+00
 outer loop
  vertex -2.209340e-01 7.863564e-01 0.000000e+00
  vertex -3.164207e-01 9.486190e-01 0.000000e+00
  vertex -4.968209e-01 8.678531e-01 0.000000e+00
 endloop
endfacet
facet normal 0.000000e+00 0.000000e+00 1.000000e+00
 outer loop
  vertex -7.995137e-01 6.006479e-01 0.000000e+00
  vertex -5.507283e-01 6.039464e-01 0.000000e+00
  vertex -6.587220e-01 7.523864e-01 0.000000e+00
 endloop
endfacet
facet normal -0.000000e+00 0.000000e+00 1.000000e+00
 outer loop
  vertex -6.587220e-01 7.523864e-01 0.000000e+00
  vertex -5.507283e-01 6.039464e-01 0.000000e+00
  vertex -4.968209e-01 8.678531e-01 0.000000e+00
 endloop
endfacet
facet normal 0.000000e+00 0.000000e+00 1.000000e+00
 outer loop
  vertex 5.687687e-01 2.160192e-01 0.000000e+00
  vertex 3.435399e-01 2.190838e-01 0.000000e+00
  vertex 4.812195e-01 2.702752e-02 0.000000e+00
 endloop
endfacet
facet normal 0.000000e+00 0.000000e+00 1.000000e+00
 outer loop
  vertex 4.812195e-01 2.702752e-02 0.000000e+00
  vertex 7.359907e-01 3.246227e-02 0.000000e+00
  vertex 5.687687e-01 2.160192e-01 0.000000e+00
 endloop
endfacet
facet normal -0.000000e+00 0.000000e+00 1.000000e+00
 outer loop
  vertex 1.198305e-01 2.292812e-01 0.000000e+00
  vertex 3.435399e-01 2.190838e-01 0.000000e+00
  vertex 2.385827e-01 4.308115e-01 0.000000e+00
 endloop
endfacet
facet normal 0.000000e+00 0.000000e+00 1.000000e+00
 outer loop
  vertex 2.385827e-01 4.308115e-01 0.000000e+00
  vertex 1.113997e-10 4.109784e-01 0.000000e+00
  vertex 1.198305e-01 2.292812e-01 0.000000e+00
 endloop
endfacet
facet normal 0.000000e+00 0.000000e+00 1.000000e+00
 outer loop
  vertex 1.198305e-01 2.292812e-01 0.000000e+00
  vertex -1.198305e-01 2.292812e-01 0.000000e+00
  vertex 1.077061e-10 4.030552e-02 0.000000e+00
 endloop
endfacet
facet normal 0.000000e+00 0.000000e+00 1.000000e+00
 outer loop
  vertex 1.198305e-01 2.292812e-01 0.000000e+00
  vertex 1.113997e-10 4.109784e-01 0.000000e+00
  vertex -1.198305e-01 2.292812e-01 0.000000e+00
 endloop
endfacet
facet normal 0.000000e+00 0.000000e+00 1.000000e+00
 outer loop
  vertex 3.164207e-01 9.486190e-01 0.000000e+00
  vertex 2.209340e-01 7.863564e-01 0.000000e+00
  vertex 4.968209e-01 8.678531e-01 0.000000e+00
 endloop
endfacet
facet normal 0.000000e+00 0.000000e+00 1.000000e+00
 outer loop
  vertex 1.062828e-01 9.943359e-01 0.000000e+00
  vertex 2.209340e-01 7.863564e-01 0.000000e+00
  vertex 3.164207e-01 9.486190e-01 0.000000e+00
 endloop
endfacet
facet normal 0.000000e+00 0.000000e+00 1.000000e+00
 outer loop
  vertex 5.507283e-01 6.039464e-01 0.000000e+00
  vertex 4.968209e-01 8.678531e-01 0.000000e+00
  vertex 3.594758e-01 6.473479e-01 0.000000e+00
 endloop
endfacet
facet normal 0.000000e+00 0.000000e+00 1.000000e+00
 outer loop
  vertex 4.968209e-01 8.678531e-01 0.000000e+00
  vertex 2.209340e-01 7.863564e-01 0.000000e+00
  vertex 3.594758e-01 6.473479e-01 0.000000e+00
 endloop
endfacet
facet normal 0.000000e+00 0.000000e+00 1.000000e+00
 outer loop
  vertex 1.160891e-01 6.000062e-01 0.000000e+00
  vertex 1.113997e-10 4.109784e-01 0.000000e+00
  vertex 2.385827e-01 4.308115e-01 0.000000e+00
 endloop
endfacet
facet normal 0.000000e+00 -0.000000e+00 1.000000e+00
 outer loop
  vertex 2.385827e-01 4.308115e-01 0.000000e+00
  vertex 3.594758e-01 6.473479e-01 0.000000e+00
  vertex 1.160891e-01 6.000062e-01 0.000000e+00
 endloop
endfacet
facet normal 0.000000e+00 0.000000e+00 1.000000e+00
 outer loop
  vertex 1.160891e-01 6.000062e-01 0.000000e+00
  vertex 3.594758e-01 6.473479e-01 0.000000e+00
  vertex 2.209340e-01 7.863564e-01 0.000000e+00
 endloop
endfacet
facet normal 0.000000e+00 -0.000000e+00 1.000000e+00
 outer loop
  vertex 1.160891e-01 6.000062e-01 0.000000e+00
  vertex 2.209340e-01 7.863564e-01 0.000000e+00
  vertex 6.159375e-10 7.950347e-01 0.000000e+00
 endloop
endfacet
facet normal 0.000000e+00 0.000000e+00 1.000000e+00
 outer loop
  vertex 7.069310e-01 -7.072826e-01 0.000000e+00
  vertex 5.814633e-01 -5.357894e-01 0.000000e+00
  vertex 4.329606e-01 -6.907404e-01 0.000000e+00
 endloop
endfacet
facet normal 0.000000e+00 -0.000000e+00 1.000000e+00
 outer loop
  vertex 4.329606e-01 -6.907404e-01 0.000000e+00
  vertex 5.814633e-01 -5.357894e-01 0.000000e+00
  vertex 3.274774e-01 -5.283964e-01 0.000000e+00
 endloop
endfacet
facet normal 0.000000e+00 0.000000e+00 1.000000e+00
 outer loop
  vertex 8.341573e-01 -5.515267e-01 0.000000e+00
  vertex 5.814633e-01 -5.357894e-01 0.000000e+00
  vertex 7.069310e-01 -7.072826e-01 0.000000e+00
 endloop
endfacet
facet normal 0.000000e+00 0.000000e+00 1.000000e+00
 outer loop
  vertex 2.212086e-01 -3.492078e-01 0.000000e+00
  vertex 1.076843e-01 -5.662890e-01 0.000000e+00
  vertex 3.274774e-01 -5.283964e-01 0.000000e+00
 endloop
endfacet
facet normal -0.000000e+00 0.000000e+00 1.000000e+00
 outer loop
  vertex 2.648355e-11 -3.621064e-01 0.000000e+00
  vertex 1.076843e-01 -5.662890e-01 0.000000e+00
  vertex 2.212086e-01 -3.492078e-01 0.000000e+00
 endloop
endfacet
facet normal 0.000000e+00 0.000000e+00 1.000000e+00
 outer loop
  vertex 5.813373e-01 -1.587260e-01 0.000000e+00
  vertex 3.470923e-01 -1.601840e-01 0.000000e+00
  vertex 4.626016e-01 -3.499187e-01 0.000000e+00
 endloop
endfacet
facet normal -0.000000e+00 0.000000e+00 1.000000e+00
 outer loop
  vertex 3.274774e-01 -5.283964e-01 0.000000e+00
  vertex 5.814633e-01 -5.357894e-01 0.000000e+00
  vertex 4.626016e-01 -3.499187e-01 0.000000e+00
 endloop
endfacet
facet normal 0.000000e+00 0.000000e+00 1.000000e+00
 outer loop
  vertex 4.626016e-01 -3.499187e-01 0.000000e+00
  vertex 2.212086e-01 -3.492078e-01 0.000000e+00
  vertex 3.274774e-01 -5.283964e-01 0.000000e+00
 endloop
endfacet
facet normal 0.000000e+00 0.000000e+00 1.000000e+00
 outer loop
  vertex 3.470923e-01 -1.601840e-01 0.000000e+00
  vertex 2.212086e-01 -3.492078e-01 0.000000e+00
  vertex 4.626016e-01 -3.499187e-01 0.000000e+00
 endloop
endfacet
facet normal 0.000000e+00 0.000000e+00 1.000000e+00
 outer loop
  vertex 1.121556e-01 -1.569016e-01 0.000000e+00
  vertex 2.212086e-01 -3.492078e-01 0.000000e+00
  vertex 3.470923e-01 -1.601840e-01 0.000000e+00
 endloop
endfacet
facet normal 0.000000e+00 0.000000e+00 1.000000e+00
 outer loop
  vertex 1.077061e-10 4.030552e-02 0.000000e+00
  vertex -1.121556e-01 -1.569016e-01 0.000000e+00
  vertex 1.121556e-01 -1.569016e-01 0.000000e+00
 endloop
endfacet
facet normal 0.000000e+00 0.000000e+00 1.000000e+00
 outer loop
  vertex 1.121556e-01 -1.569016e-01 0.000000e+00
  vertex -1.121556e-01 -1.569016e-01 0.000000e+00
  vertex 2.648355e-11 -3.621064e-01 0.000000e+00
 endloop
endfacet
facet normal 0.000000e+00 0.000000e+00 1.000000e+00
 outer loop
  vertex 2.648355e-11 -3.621064e-01 0.000000e+00
  vertex 2.212086e-01 -3.492078e-01 0.000000e+00
  vertex 1.121556e-01 -1.569016e-01 0.000000e+00
 endloop
endfacet
facet normal 0.000000e+00 0.000000e+00 1.000000e+00
 outer loop
  vertex 4.812195e-01 2.702752e-02 0.000000e+00
  vertex 3.435399e-01 2.190838e-01 0.000000e+00
  vertex 2.372711e-01 3.012835e-02 0.000000e+00
 endloop
endfacet
facet normal 0.000000e+00 0.000000e+00 1.000000e+00
 outer loop
  vertex 2.372711e-01 3.012835e-02 0.000000e+00
  vertex 3.470923e-01 -1.601840e-01 0.000000e+00
  vertex 4.812195e-01 2.702752e-02 0.000000e+00
 endloop
endfacet
facet normal 0.000000e+00 0.000000e+00 1.000000e+00
 outer loop
  vertex 2.372711e-01 3.012835e-02 0.000000e+00
  vertex 1.121556e-01 -1.569016e-01 0.000000e+00
  vertex 3.470923e-01 -1.601840e-01 0.000000e+00
 endloop
endfacet
facet normal 0.000000e+00 0.000000e+00 1.000000e+00
 outer loop
  vertex 1.077061e-10 4.030552e-02 0.000000e+00
  vertex 1.121556e-01 -1.569016e-01 0.000000e+00
  vertex 2.372711e-01 3.012835e-02 0.000000e+00
 endloop
endfacet
facet normal 0.000000e+00 0.000000e+00 1.000000e+00
 outer loop
  vertex 2.372711e-01 3.012835e-02 0.000000e+00
  vertex 1.198305e-01 2.292812e-01 0.000000e+00
  vertex 1.077061e-10 4.030552e-02 0.000000e+00
 endloop
endfacet
facet normal 0.000000e+00 0.000000e+00 1.000000e+00
 outer loop
  vertex 3.435399e-01 2.190838e-01 0.000000e+00
  vertex 1.198305e-01 2.292812e-01 0.000000e+00
  vertex 2.372711e-01 3.012835e-02 0.000000e+00
 endloop
endfacet
facet normal 0.000000e+00 0.000000e+00 1.000000e+00
 outer loop
  vertex 9.292287e-01 -3.695051e-01 0.000000e+00
  vertex 7.993196e-01 -1.561411e-01 0.000000e+00
  vertex 7.013838e-01 -3.567007e-01 0.000000e+00
 endloop
endfacet
facet normal 0.000000e+00 0.000000e+00 1.000000e+00
 outer loop
  vertex 7.013838e-01 -3.567007e-01 0.000000e+00
  vertex 8.341573e-01 -5.515267e-01 0.000000e+00
  vertex 9.292287e-01 -3.695051e-01 0.000000e+00
 endloop
endfacet
facet normal -0.000000e+00 0.000000e+00 1.000000e+00
 outer loop
  vertex 5.814633e-01 -5.357894e-01 0.000000e+00
  vertex 8.341573e-01 -5.515267e-01 0.000000e+00
  vertex 7.013838e-01 -3.567007e-01 0.000000e+00
 endloop
endfacet
facet normal 0.000000e+00 -0.000000e+00 1.000000e+00
 outer loop
  vertex 7.013838e-01 -3.567007e-01 0.000000e+00
  vertex 7.993196e-01 -1.561411e-01 0.000000e+00
  vertex 5.813373e-01 -1.587260e-01 0.000000e+00
 endloop
endfacet
facet normal 0.000000e+00 0.000000e+00 1.000000e+00
 outer loop
  vertex 5.813373e-01 -1.587260e-01 0.000000e+00
  vertex 4.626016e-01 -3.499187e-01 0.000000e+00
  vertex 7.013838e-01 -3.567007e-01 0.000000e+00
 endloop
endfacet
facet normal 0.000000e+00 0.000000e+00 1.000000e+00
 outer loop
  vertex 7.013838e-01 -3.567007e-01 0.000000e+00
  vertex 4.626016e-01 -3.499187e-01 0.000000e+00
  vertex 5.814633e-01 -5.357894e-01 0.000000e+00
 endloop
endfacet
facet normal 0.000000e+00 -0.000000e+00 1.000000e+00
 outer loop
  vertex 7.830104e-01 2.241742e-01 0.000000e+00
  vertex 9.070877e-01 4.209416e-01 0.000000e+00
  vertex 6.749694e-01 4.179995e-01 0.000000e+00
 endloop
endfacet
facet normal 0.000000e+00 0.000000e+00 1.000000e+00
 outer loop
  vertex 6.749694e-01 4.179995e-01 0.000000e+00
  vertex 5.687687e-01 2.160192e-01 0.000000e+00
  vertex 7.830104e-01 2.241742e-01 0.000000e+00
 endloop
endfacet
facet normal 0.000000e+00 0.000000e+00 1.000000e+00
 outer loop
  vertex 7.830104e-01 2.241742e-01 0.000000e+00
  vertex 5.687687e-01 2.160192e-01 0.000000e+00
  vertex 7.359907e-01 3.246227e-02 0.000000e+00
 endloop
endfacet
facet normal 0.000000e+00 0.000000e+00 1.000000e+00
 outer loop
  vertex 7.830104e-01 2.241742e-01 0.000000e+00
  vertex 7.359907e-01 3.246227e-02 0.000000e+00
  vertex 9.997194e-01 2.368974e-02 0.000000e+00
 endloop
endfacet
facet normal 0.000000e+00 -0.000000e+00 1.000000e+00
 outer loop
  vertex -7.478945e-11 -7.870695e-01 0.000000e+00
  vertex 1.076843e-01 -5.662890e-01 0.000000e+00
  vertex -1.076843e-01 -5.662890e-01 0.000000e+00
 endloop
endfacet
facet normal -0.000000e+00 0.000000e+00 1.000000e+00
 outer loop
  vertex -1.076843e-01 -5.662890e-01 0.000000e+00
  vertex 1.076843e-01 -5.662890e-01 0.000000e+00
  vertex 2.648355e-11 -3.621064e-01 0.000000e+00
 endloop
endfacet
facet normal 0.000000e+00 0.000000e+00 1.000000e+00
 outer loop
  vertex -1.076843e-01 -5.662890e-01 0.000000e+00
  vertex -2.212086e-01 -3.492078e-01 0.000000e+00
  vertex -3.274774e-01 -5.283964e-01 0.000000e+00
 endloop
endfacet
facet normal 0.000000e+00 0.000000e+00 1.000000e+00
 outer loop
  vertex 2.648355e-11 -3.621064e-01 0.000000e+00
  vertex -2.212086e-01 -3.492078e-01 0.000000e+00
  vertex -1.076843e-01 -5.662890e-01 0.000000e+00
 endloop
endfacet
facet normal 0.000000e+00 0.000000e+00 1.000000e+00
 outer loop
  vertex -7.993196e-01 -1.561411e-01 0.000000e+00
  vertex -9.997194e-01 2.368974e-02 0.000000e+00
  vertex -9.849739e-01 -1.727034e-01 0.000000e+00
 endloop
endfacet
facet normal 0.000000e+00 0.000000e+00 1.000000e+00
 outer loop
  vertex -7.359907e-01 3.246227e-02 0.000000e+00
  vertex -9.997194e-01 2.368974e-02 0.000000e+00
  vertex -7.993196e-01 -1.561411e-01 0.000000e+00
 endloop
endfacet
facet normal -0.000000e+00 0.000000e+00 1.000000e+00
 outer loop
  vertex -9.849739e-01 -1.727034e-01 0.000000e+00
  vertex -9.292287e-01 -3.695051e-01 0.000000e+00
  vertex -7.993196e-01 -1.561411e-01 0.000000e+00
 endloop
endfacet
facet normal 0.000000e+00 0.000000e+00 1.000000e+00
 outer loop
  vertex -9.292287e-01 -3.695051e-01 0.000000e+00
  vertex -7.013838e-01 -3.567007e-01 0.000000e+00
  vertex -7.993196e-01 -1.561411e-01 0.000000e+00
 endloop
endfacet
facet normal -0.000000e+00 0.000000e+00 1.000000e+00
 outer loop
  vertex -5.687687e-01 2.160192e-01 0.000000e+00
  vertex -4.812195e-01 2.702752e-02 0.000000e+00
  vertex -3.435399e-01 2.190838e-01 0.000000e+00
 endloop
endfacet
facet normal 0.000000e+00 0.000000e+00 1.000000e+00
 outer loop
  vertex -3.435399e-01 2.190838e-01 0.000000e+00
  vertex -4.485290e-01 4.151998e-01 0.000000e+00
  vertex -5.687687e-01 2.160192e-01 0.000000e+00
 endloop
endfacet
facet normal 0.000000e+00 0.000000e+00 1.000000e+00
 outer loop
  vertex -3.435399e-01 2.190838e-01 0.000000e+00
  vertex -1.198305e-01 2.292812e-01 0.000000e+00
  vertex -2.385827e-01 4.308115e-01 0.000000e+00
 endloop
endfacet
facet normal 0.000000e+00 0.000000e+00 1.000000e+00
 outer loop
  vertex -2.385827e-01 4.308115e-01 0.000000e+00
  vertex -4.485290e-01 4.151998e-01 0.000000e+00
  vertex -3.435399e-01 2.190838e-01 0.000000e+00
 endloop
endfacet
facet normal 0.000000e+00 0.000000e+00 1.000000e+00
 outer loop
  vertex -7.995137e-01 6.006479e-01 0.000000e+00
  vertex -9.070877e-01 4.209416e-01 0.000000e+00
  vertex -6.749694e-01 4.179995e-01 0.000000e+00
 endloop
endfacet
facet normal 0.000000e+00 0.000000e+00 1.000000e+00
 outer loop
  vertex -9.070877e-01 4.209416e-01 0.000000e+00
  vertex -7.830104e-01 2.241742e-01 0.000000e+00
  vertex -6.749694e-01 4.179995e-01 0.000000e+00
 endloop
endfacet
facet normal 0.000000e+00 0.000000e+00 1.000000e+00
 outer loop
  vertex -6.749694e-01 4.179995e-01 0.000000e+00
  vertex -7.830104e-01 2.241742e-01 0.000000e+00
  vertex -5.687687e-01 2.160192e-01 0.000000e+00
 endloop
endfacet
facet normal 0.000000e+00 -0.000000e+00 1.000000e+00
 outer loop
  vertex -6.749694e-01 4.179995e-01 0.000000e+00
  vertex -5.507283e-01 6.039464e-01 0.000000e+00
  vertex -7.995137e-01 6.006479e-01 0.000000e+00
 endloop
endfacet
facet normal 0.000000e+00 -0.000000e+00 1.000000e+00
 outer loop
  vertex -5.687687e-01 2.160192e-01 0.000000e+00
  vertex -4.485290e-01 4.151998e-01 0.000000e+00
  vertex -6.749694e-01 4.179995e-01 0.000000e+00
 endloop
endfacet
facet normal -0.000000e+00 0.000000e+00 1.000000e+00
 outer loop
  vertex -6.749694e-01 4.179995e-01 0.000000e+00
  vertex -4.485290e-01 4.151998e-01 0.000000e+00
  vertex -5.507283e-01 6.039464e-01 0.000000e+00
 endloop
endfacet
facet normal -0.000000e+00 0.000000e+00 1.000000e+00
 outer loop
  vertex -5.814633e-01 -5.357894e-01 0.000000e+00
  vertex -4.329606e-01 -6.907404e-01 0.000000e+00
  vertex -3.274774e-01 -5.283964e-01 0.000000e+00
 endloop
endfacet
facet normal 0.000000e+00 0.000000e+00 1.000000e+00
 outer loop
  vertex -3.274774e-01 -5.283964e-01 0.000000e+00
  vertex -4.626016e-01 -3.499187e-01 0.000000e+00
  vertex -5.814633e-01 -5.357894e-01 0.000000e+00
 endloop
endfacet
facet normal 0.000000e+00 -0.000000e+00 1.000000e+00
 outer loop
  vertex -5.814633e-01 -5.357894e-01 0.000000e+00
  vertex -4.626016e-01 -3.499187e-01 0.000000e+00
  vertex -7.013838e-01 -3.567007e-01 0.000000e+00
 endloop
endfacet
facet normal 0.000000e+00 0.000000e+00 1.000000e+00
 outer loop
  vertex -5.814633e-01 -5.357894e-01 0.000000e+00
  vertex -7.069310e-01 -7.072825e-01 0.000000e+00
  vertex -4.329606e-01 -6.907404e-01 0.000000e+00
 endloop
endfacet
facet normal 0.000000e+00 0.000000e+00 1.000000e+00
 outer loop
  vertex -5.814633e-01 -5.357894e-01 0.000000e+00
  vertex -7.013838e-01 -3.567007e-01 0.000000e+00
  vertex -8.341573e-01 -5.515267e-01 0.000000e+00
 endloop
endfacet
facet normal -0.000000e+00 0.000000e+00 1.000000e+00
 outer loop
  vertex -8.341573e-01 -5.515267e-01 0.000000e+00
  vertex -7.069310e-01 -7.072825e-01 0.000000e+00
  vertex -5.814633e-01 -5.357894e-01 0.000000e+00
 endloop
endfacet
facet normal -0.000000e+00 0.000000e+00 1.000000e+00
 outer loop
  vertex -2.385827e-01 4.308115e-01 0.000000e+00
  vertex 1.113997e-10 4.109784e-01 0.000000e+00
  vertex -1.160891e-01 6.000062e-01 0.000000e+00
 endloop
endfacet
facet normal 0.000000e+00 0.000000e+00 1.000000e+00
 outer loop
  vertex 6.159375e-10 7.950347e-01 0.000000e+00
  vertex -2.209340e-01 7.863564e-01 0.000000e+00
  vertex -1.160891e-01 6.000062e-01 0.000000e+00
 endloop
endfacet
facet normal 0.000000e+00 0.000000e+00 1.000000e+00
 outer loop
  vertex -1.160891e-01 6.000062e-01 0.000000e+00
  vertex 1.160891e-01 6.000062e-01 0.000000e+00
  vertex 6.159375e-10 7.950347e-01 0.000000e+00
 endloop
endfacet
facet normal 0.000000e+00 -0.000000e+00 1.000000e+00
 outer loop
  vertex 1.113997e-10 4.109784e-01 0.000000e+00
  vertex 1.160891e-01 6.000062e-01 0.000000e+00
  vertex -1.160891e-01 6.000062e-01 0.000000e+00
 endloop
endfacet
facet normal 0.000000e+00 0.000000e+00 1.000000e+00
 outer loop
  vertex -4.968209e-01 8.678531e-01 0.000000e+00
  vertex -5.507283e-01 6.039464e-01 0.000000e+00
  vertex -3.594758e-01 6.473479e-01 0.000000e+00
 endloop
endfacet
facet normal 0.000000e+00 -0.000000e+00 1.000000e+00
 outer loop
  vertex -3.594758e-01 6.473479e-01 0.000000e+00
  vertex -2.209340e-01 7.863564e-01 0.000000e+00
  vertex -4.968209e-01 8.678531e-01 0.000000e+00
 endloop
endfacet
facet normal 0.000000e+00 0.000000e+00 1.000000e+00
 outer loop
  vertex -3.594758e-01 6.473479e-01 0.000000e+00
  vertex -4.485290e-01 4.151998e-01 0.000000e+00
  vertex -2.385827e-01 4.308115e-01 0.000000e+00
 endloop
endfacet
facet normal -0.000000e+00 0.000000e+00 1.000000e+00
 outer loop
  vertex -5.507283e-01 6.039464e-01 0.000000e+00
  vertex -4.485290e-01 4.151998e-01 0.000000e+00
  vertex -3.594758e-01 6.473479e-01 0.000000e+00
 endloop
endfacet
facet normal 0.000000e+00 -0.000000e+00 1.000000e+00
 outer loop
  vertex -2.385827e-01 4.308115e-01 0.000000e+00
  vertex -1.160891e-01 6.000062e-01 0.000000e+00
  vertex -3.594758e-01 6.473479e-01 0.000000e+00
 endloop
endfacet
facet normal -0.000000e+00 0.000000e+00 1.000000e+00
 outer loop
  vertex -3.594758e-01 6.473479e-01 0.000000e+00
  vertex -1.160891e-01 6.000062e-01 0.000000e+00
  vertex -2.209340e-01 7.863564e-01 0.000000e+00
 endloop
endfacet
facet normal 0.000000e+00 0.000000e+00 1.000000e+00
 outer loop
  vertex 2.385827e-01 4.308115e-01 0.000000e+00
  vertex 3.435399e-01 2.190838e-01 0.000000e+00
  vertex 4.485290e-01 4.151998e-01 0.000000e+00
 endloop
endfacet
facet normal -0.000000e+00 0.000000e+00 1.000000e+00
 outer loop
  vertex 3.435399e-01 2.190838e-01 0.000000e+00
  vertex 5.687687e-01 2.160192e-01 0.000000e+00
  vertex 4.485290e-01 4.151998e-01 0.000000e+00
 endloop
endfacet
facet normal 0.000000e+00 0.000000e+00 1.000000e+00
 outer loop
  vertex 5.507283e-01 6.039464e-01 0.000000e+00
  vertex 3.594758e-01 6.473479e-01 0.000000e+00
  vertex 4.485290e-01 4.151998e-01 0.000000e+00
 endloop
endfacet
facet normal 0.000000e+00 0.000000e+00 1.000000e+00
 outer loop
  vertex 4.485290e-01 4.151998e-01 0.000000e+00
  vertex 3.594758e-01 6.473479e-01 0.000000e+00
  vertex 2.385827e-01 4.308115e-01 0.000000e+00
 endloop
endfacet
facet normal 0.000000e+00 0.000000e+00 1.000000e+00
 outer loop
  vertex 4.485290e-01 4.151998e-01 0.000000e+00
  vertex 6.749694e-01 4.179995e-01 0.000000e+00
  vertex 5.507283e-01 6.039464e-01 0.000000e+00
 endloop
endfacet
facet normal -0.000000e+00 0.000000e+00 1.000000e+00
 outer loop
  vertex 4.485290e-01 4.151998e-01 0.000000e+00
  vertex 5.687687e-01 2.160192e-01 0.000000e+00
  vertex 6.749694e-01 4.179995e-01 0.000000e+00
 endloop
endfacet
facet normal 0.000000e+00 0.000000e+00 1.000000e+00
 outer loop
  vertex 7.069310e-01 -7.072826e-01 0.000000e+00
  vertex 4.329606e-01 -6.907404e-01 0.000000e+00
  vertex 5.586651e-01 -8.293934e-01 0.000000e+00
 endloop
endfacet
facet normal 0.000000e+00 0.000000e+00 1.000000e+00
 outer loop
  vertex 5.586651e-01 -8.293934e-01 0.000000e+00
  vertex 4.329606e-01 -6.907404e-01 0.000000e+00
  vertex 3.785435e-01 -9.255835e-01 0.000000e+00
 endloop
endfacet
facet normal 0.000000e+00 0.000000e+00 1.000000e+00
 outer loop
  vertex 2.195919e-01 -7.553858e-01 0.000000e+00
  vertex 1.076843e-01 -5.662890e-01 0.000000e+00
  vertex -7.478945e-11 -7.870695e-01 0.000000e+00
 endloop
endfacet
facet normal -0.000000e+00 0.000000e+00 1.000000e+00
 outer loop
  vertex -7.478945e-11 -7.870695e-01 0.000000e+00
  vertex 1.865237e-01 -9.824505e-01 0.000000e+00
  vertex 2.195919e-01 -7.553858e-01 0.000000e+00
 endloop
endfacet
facet normal 0.000000e+00 0.000000e+00 1.000000e+00
 outer loop
  vertex 3.274774e-01 -5.283964e-01 0.000000e+00
  vertex 1.076843e-01 -5.662890e-01 0.000000e+00
  vertex 2.195919e-01 -7.553858e-01 0.000000e+00
 endloop
endfacet
facet normal 0.000000e+00 0.000000e+00 1.000000e+00
 outer loop
  vertex 2.195919e-01 -7.553858e-01 0.000000e+00
  vertex 4.329606e-01 -6.907404e-01 0.000000e+00
  vertex 3.274774e-01 -5.283964e-01 0.000000e+00
 endloop
endfacet
facet normal 0.000000e+00 0.000000e+00 1.000000e+00
 outer loop
  vertex 2.195919e-01 -7.553858e-01 0.000000e+00
  vertex 1.865237e-01 -9.824505e-01 0.000000e+00
  vertex 3.785435e-01 -9.255835e-01 0.000000e+00
 endloop
endfacet
facet normal 0.000000e+00 -0.000000e+00 1.000000e+00
 outer loop
  vertex 3.785435e-01 -9.255835e-01 0.000000e+00
  vertex 4.329606e-01 -6.907404e-01 0.000000e+00
  vertex 2.195919e-01 -7.553858e-01 0.000000e+00
 endloop
endfacet
facet normal 0.000000e+00 0.000000e+00 1.000000e+00
 outer loop
  vertex 9.760328e-01 2.176234e-01 0.000000e+00
  vertex 7.830104e-01 2.241742e-01 0.000000e+00
  vertex 9.997194e-01 2.368974e-02 0.000000e+00
 endloop
endfacet
facet normal 0.000000e+00 0.000000e+00 1.000000e+00
 outer loop
  vertex 9.070877e-01 4.209416e-01 0.000000e+00
  vertex 7.830104e-01 2.241742e-01 0.000000e+00
  vertex 9.760328e-01 2.176234e-01 0.000000e+00
 endloop
endfacet
facet normal 0.000000e+00 0.000000e+00 1.000000e+00
 outer loop
  vertex -7.478945e-11 -7.870695e-01 0.000000e+00
  vertex -1.076843e-01 -5.662890e-01 0.000000e+00
  vertex -2.195919e-01 -7.553858e-01 0.000000e+00
 endloop
endfacet
facet normal 0.000000e+00 -0.000000e+00 1.000000e+00
 outer loop
  vertex -1.865237e-01 -9.824505e-01 0.000000e+00
  vertex -7.478945e-11 -7.870695e-01 0.000000e+00
  vertex -2.195919e-01 -7.553858e-01 0.000000e+00
 endloop
endfacet
facet normal 0.000000e+00 0.000000e+00 1.000000e+00
 outer loop
  vertex -3.274774e-01 -5.283964e-01 0.000000e+00
  vertex -4.329606e-01 -6.907404e-01 0.000000e+00
  vertex -2.195919e-01 -7.553858e-01 0.000000e+00
 endloop
endfacet
facet normal 0.000000e+00 -0.000000e+00 1.000000e+00
 outer loop
  vertex -2.195919e-01 -7.553858e-01 0.000000e+00
  vertex -1.076843e-01 -5.662890e-01 0.000000e+00
  vertex -3.274774e-01 -5.283964e-01 0.000000e+00
 endloop
endfacet
facet normal 0.000000e+00 0.000000e+00 1.000000e+00
 outer loop
  vertex -2.195919e-01 -7.553858e-01 0.000000e+00
  vertex -3.785435e-01 -9.255835e-01 0.000000e+00
  vertex -1.865237e-01 -9.824505e-01 0.000000e+00
 endloop
endfacet
facet normal 0.000000e+00 0.000000e+00 1.000000e+00
 outer loop
  vertex -2.195919e-01 -7.553858e-01 0.000000e+00
  vertex -4.329606e-01 -6.907404e-01 0.000000e+00
  vertex -3.785435e-01 -9.255835e-01 0.000000e+00
 endloop
endfacet
facet normal 0.000000e+00 0.000000e+00 1.000000e+00
 outer loop
  vertex -3.470923e-01 -1.601840e-01 0.000000e+00
  vertex -4.812195e-01 2.702752e-02 0.000000e+00
  vertex -5.813373e-01 -1.587260e-01 0.000000e+00
 endloop
endfacet
facet normal 0.000000e+00 0.000000e+00 1.000000e+00
 outer loop
  vertex -5.813373e-01 -1.587260e-01 0.000000e+00
  vertex -4.626016e-01 -3.499187e-01 0.000000e+00
  vertex -3.470923e-01 -1.601840e-01 0.000000e+00
 endloop
endfacet
facet normal 0.000000e+00 -0.000000e+00 1.000000e+00
 outer loop
  vertex -5.813373e-01 -1.587260e-01 0.000000e+00
  vertex -4.812195e-01 2.702752e-02 0.000000e+00
  vertex -7.359907e-01 3.246227e-02 0.000000e+00
 endloop
endfacet
facet normal 0.000000e+00 0.000000e+00 1.000000e+00
 outer loop
  vertex -7.359907e-01 3.246227e-02 0.000000e+00
  vertex -7.993196e-01 -1.561411e-01 0.000000e+00
  vertex -5.813373e-01 -1.587260e-01 0.000000e+00
 endloop
endfacet
facet normal 0.000000e+00 0.000000e+00 1.000000e+00
 outer loop
  vertex -7.013838e-01 -3.567007e-01 0.000000e+00
  vertex -4.626016e-01 -3.499187e-01 0.000000e+00
  vertex -5.813373e-01 -1.587260e-01 0.000000e+00
 endloop
endfacet
facet normal 0.000000e+00 0.000000e+00 1.000000e+00
 outer loop
  vertex -5.813373e-01 -1.587260e-01 0.000000e+00
  vertex -7.993196e-01 -1.561411e-01 0.000000e+00
  vertex -7.013838e-01 -3.567007e-01 0.000000e+00
 endloop
endfacet
facet normal 0.000000e+00 0.000000e+00 1.000000e+00
 outer loop
  vertex -2.372711e-01 3.012835e-02 0.000000e+00
  vertex -4.812195e-01 2.702752e-02 0.000000e+00
  vertex -3.470923e-01 -1.601840e-01 0.000000e+00
 endloop
endfacet
facet normal 0.000000e+00 0.000000e+00 1.000000e+00
 outer loop
  vertex -2.372711e-01 3.012835e-02 0.000000e+00
  vertex -3.435399e-01 2.190838e-01 0.000000e+00
  vertex -4.812195e-01 2.702752e-02 0.000000e+00
 endloop
endfacet
facet normal 0.000000e+00 0.000000e+00 1.000000e+00
 outer loop
  vertex -3.470923e-01 -1.601840e-01 0.000000e+00
  vertex -1.121556e-01 -1.569016e-01 0.000000e+00
  vertex -2.372711e-01 3.012835e-02 0.000000e+00
 endloop
endfacet
facet normal -0.000000e+00 0.000000e+00 1.000000e+00
 outer loop
  vertex -2.372711e-01 3.012835e-02 0.000000e+00
  vertex -1.121556e-01 -1.569016e-01 0.000000e+00
  vertex 1.077061e-10 4.030552e-02 0.000000e+00
 endloop
endfacet
facet normal 0.000000e+00 0.000000e+00 1.000000e+00
 outer loop
  vertex 1.077061e-10 4.030552e-02 0.000000e+00
  vertex -1.198305e-01 2.292812e-01 0.000000e+00
  vertex -2.372711e-01 3.012835e-02 0.000000e+00
 endloop
endfacet
facet normal 0.000000e+00 0.000000e+00 1.000000e+00
 outer loop
  vertex -1.198305e-01 2.292812e-01 0.000000e+00
  vertex -3.435399e-01 2.190838e-01 0.000000e+00
  vertex -2.372711e-01 3.012835e-02 0.000000e+00
 endloop
endfacet
endsolid 
