<?xml version="1.0" encoding="UTF-8" standalone="no"?>
<!-- Created with Inkscape (http://www.inkscape.org/) -->

<svg
   xmlns:dc="http://purl.org/dc/elements/1.1/"
   xmlns:cc="http://creativecommons.org/ns#"
   xmlns:rdf="http://www.w3.org/1999/02/22-rdf-syntax-ns#"
   xmlns:svg="http://www.w3.org/2000/svg"
   xmlns="http://www.w3.org/2000/svg"
   xmlns:xlink="http://www.w3.org/1999/xlink"
   xmlns:sodipodi="http://sodipodi.sourceforge.net/DTD/sodipodi-0.dtd"
   xmlns:inkscape="http://www.inkscape.org/namespaces/inkscape"
   id="svg22904"
   version="1.1"
   inkscape:version="0.92.4 (5da689c313, 2019-01-14)"
   width="2339"
   height="898.25952"
   viewBox="0 0 2339 898.25952"
   sodipodi:docname="logo_simple_w_name.svg">
  <metadata
     id="metadata22910">
    <rdf:RDF>
      <cc:Work
         rdf:about="">
        <dc:format>image/svg+xml</dc:format>
        <dc:type
           rdf:resource="http://purl.org/dc/dcmitype/StillImage" />
        <dc:title></dc:title>
      </cc:Work>
    </rdf:RDF>
  </metadata>
  <defs
     id="defs22908">
    <linearGradient
       inkscape:collect="always"
       id="linearGradient4550">
      <stop
         style="stop-color:#000000;stop-opacity:1;"
         offset="0"
         id="stop4546" />
      <stop
         style="stop-color:#000000;stop-opacity:0;"
         offset="1"
         id="stop4548" />
    </linearGradient>
    <radialGradient
       inkscape:collect="always"
       xlink:href="#linearGradient4550"
       id="radialGradient4554"
       cx="1735"
       cy="419"
       fx="1735"
       fy="419"
       r="684"
       gradientTransform="matrix(1,0,0,0.00438596,-150.71068,429.30405)"
       gradientUnits="userSpaceOnUse" />
  </defs>
  <sodipodi:namedview
     pagecolor="#ffffff"
     bordercolor="#666666"
     borderopacity="1"
     objecttolerance="10"
     gridtolerance="10"
     guidetolerance="10"
     inkscape:pageopacity="0"
     inkscape:pageshadow="2"
     inkscape:window-width="3840"
     inkscape:window-height="2066"
     id="namedview22906"
     showgrid="false"
     inkscape:zoom="0.70710678"
     inkscape:cx="1404.8908"
     inkscape:cy="775.59274"
     inkscape:window-x="-11"
     inkscape:window-y="-11"
     inkscape:window-maximized="1"
     inkscape:current-layer="svg22904"
     fit-margin-top="0"
     fit-margin-left="0"
     fit-margin-right="0"
     fit-margin-bottom="0">
    <inkscape:grid
       type="xygrid"
       id="grid23607"
       originx="-253.12327"
       originy="-147.7555" />
  </sodipodi:namedview>
  <path
     inkscape:connector-curvature="0"
     id="path23605"
     d="m 199.08824,896.16356 c -0.93888,-0.59321 0.93873,-3.50499 6.91991,-10.73131 73.02474,-88.22671 129.10601,-179.75273 165.08157,-269.41719 13.52467,-33.70851 24.48038,-68.08082 34.74227,-109 8.94505,-35.66826 11.10727,-43 12.68124,-43 1.75551,0 1.73951,0.20612 -0.65988,8.50318 -1.11286,3.84825 -4.72887,17.79682 -8.03557,30.99682 -7.33379,29.27561 -14.96867,55.58152 -22.49319,77.5 -33.96557,98.93978 -94.64904,203.61203 -173.89052,299.94184 -6.08154,7.39302 -11.50734,14.02212 -12.05734,14.73134 -0.58906,0.75962 -1.52949,0.95492 -2.28849,0.47532 z m 182.78849,-61.51098 c 0,-0.19937 1.13684,-5.93687 2.52632,-12.75 3.35161,-16.43422 11.64323,-61.9267 15.38077,-84.38752 13.63799,-81.95775 21.40281,-148.29948 28.09029,-240 2.5716,-35.26256 2.85563,-37.5 4.76028,-37.5 1.21083,0 1.3791,0.91571 0.87286,4.75 -0.34493,2.6125 -1.75702,20.05 -3.13799,38.75 -8.31512,112.59724 -22.62925,218.66758 -42.96621,318.38752 -1.38948,6.81313 -2.52632,12.55063 -2.52632,12.75 0,0.19936 -0.675,0.36248 -1.5,0.36248 -0.825,0 -1.5,-0.16312 -1.5,-0.36248 z M 61.5434,796.34839 c -1.44876,-1.44875 -0.40611,-2.10587 6.08333,-3.83394 12.11039,-3.22486 38.22764,-12.52248 54.15578,-19.27919 89.02059,-37.76253 167.23309,-101.73763 218.80883,-178.97803 18.67042,-27.96102 32.64511,-54.80843 48.27441,-92.74217 13.69173,-33.23108 13.57392,-32.97753 15.49612,-33.35142 1.21557,-0.23645 1.61211,0.0907 1.21198,1 -0.32708,0.74328 -4.48902,10.80142 -9.24875,22.35142 -18.05015,43.80063 -29.18984,66.38057 -46.04715,93.33668 -45.48277,72.73043 -115.83075,136.00543 -196.30252,176.56575 -27.38553,13.80317 -51.33451,23.54373 -78.00451,31.72609 -13.78864,4.23035 -13.47226,4.16007 -14.42752,3.20481 z M 512.4068,772.93034 C 488.0934,698.162 470.17562,625.72892 458.37739,554.51506 c -1.45792,-8.8 -5.09537,-33.1 -8.08322,-54 -2.98785,-20.9 -5.70654,-39.2375 -6.04152,-40.75 -0.45084,-2.03557 -0.2246,-2.75 0.87086,-2.75 2.01661,0 2.75899,4.07393 9.74915,53.5 13.38788,94.66309 29.28416,164.35974 58.07516,254.62836 3.79408,11.89561 7.17835,22.35811 7.52061,23.25 0.41043,1.06957 0.0898,1.62164 -0.94185,1.62164 -1.14101,0 -3.067,-4.62163 -7.11978,-17.08472 z M 669.97807,730.94753 C 587.45179,684.15056 527.88123,620.8789 490.68502,540.51506 c -7.36196,-15.9058 -13.63082,-31.83103 -21.8472,-55.5 -3.72304,-10.725 -7.71235,-21.87916 -8.86513,-24.78702 -2.48462,-6.2674 -2.47845,-6.21298 -0.70454,-6.21298 1.68381,0 2.71804,2.5252 12.28684,30 9.90325,28.43508 15.82418,42.99716 25.81905,63.5 36.2163,74.29181 93.83345,134.83058 169.61379,178.21446 8.93222,5.11365 15.35223,9.39556 15.12211,10.0859 -0.56283,1.68851 -0.58629,1.6791 -12.13187,-4.86789 z m -521.60134,-85.9361 c -38.06016,-4.14195 -68.19419,-21.63409 -84.61936,-49.11967 -7.04581,-11.79034 -12.91183,-29.8767 -9.69003,-29.8767 0.85222,0 2.03917,2.61159 3.1542,6.93998 2.09687,8.13985 7.94174,20.48999 13.04316,27.56002 28.72563,39.81077 88.80489,52.9368 150.70505,32.92582 36.11546,-11.67535 68.61521,-31.97822 97.43327,-60.86739 23.71257,-23.77108 38.86398,-44.95806 62.43672,-87.30843 4.05631,-7.2875 7.97403,-13.25 8.70605,-13.25 0.73202,0 1.33094,0.29551 1.33094,0.6567 0,1.03939 -11.41611,21.42757 -21.29336,38.0281 -33.00356,55.46852 -74.87152,94.5933 -125.20664,117.00313 -30.9421,13.7758 -67.6485,20.39383 -96,17.30844 z m 515.5,-49.70902 c -26.48573,-2.13791 -59.00402,-11.21852 -82.5,-23.0378 -40.20025,-20.22211 -68.88494,-49.42584 -96.50335,-98.24955 -4.51126,-7.975 -9.32592,-16.24569 -10.69924,-18.37932 -1.94301,-3.0187 -2.20813,-4.05783 -1.19506,-4.68394 1.62201,-1.00245 1.32215,-1.44695 13.8279,20.49781 18.21165,31.95734 33.63979,52.14519 52.71719,68.98096 29.45512,25.99406 64.89798,42.33853 107.91116,49.7632 17.51163,3.02275 59.55966,3.30241 77.4414,0.51506 13.91045,-2.16831 31.49015,-6.01671 43,-9.4132 4.675,-1.37956 9.2875,-2.73454 10.25,-3.01106 1.1385,-0.32709 1.75,0.0473 1.75,1.07151 0,3.62293 -41.10478,13.18493 -67,15.58589 -10.68413,0.99061 -38.645,1.19629 -49,0.36044 z m -435,-19.87077 c -24.84687,-4.45269 -39.89591,-14.44238 -48.08098,-31.91658 -3.73904,-7.98243 -4.56798,-11.5 -2.71005,-11.5 0.84557,0 2.10824,2.16499 3.10279,5.32008 8.11284,25.73688 38.99225,40.11524 73.30287,34.13197 39.85523,-6.95017 74.73606,-33.34872 110.92722,-83.95205 4.32692,-6.05 8.0076,-11.195 8.1793,-11.43333 0.1717,-0.23834 0.80971,0.0642 1.4178,0.67228 2.30966,2.30966 -23.76037,35.96653 -41.64238,53.76105 -28.57218,28.43238 -59.94729,43.94587 -90.99657,44.99346 -6.05,0.20412 -12.125,0.16952 -13.5,-0.0769 z M 51.18702,539.26506 c 1.28586,-24.99111 11.34606,-50.7278 29.31854,-75.00475 7.60067,-10.26686 27.6941,-30.20901 38.70579,-38.41439 28.86638,-21.50981 62.05787,-35.2398 97.66538,-40.40023 15.81999,-2.29273 47.31234,-1.53315 60.82584,1.46708 28.43683,6.31346 51.52567,17.69176 73.67416,36.30698 15.20929,12.78301 40.29861,40.41096 38.39667,42.28178 -0.7001,0.68864 -1.89049,0.029 -3.71353,-2.0579 -25.07954,-28.70897 -35.58381,-38.79849 -51.61909,-49.58095 -67.0126,-45.06065 -164.75844,-32.75632 -230.71589,29.04272 -30.40894,28.49176 -49.84816,67.37947 -49.84816,99.72013 0,7.12378 -0.24851,8.38953 -1.64714,8.38953 -1.47037,0 -1.58226,-1.26102 -1.04257,-11.75 z m 208.73238,0.61148 c -12.37111,-2.05086 -24.1137,-10.75201 -27.35732,-20.27153 -1.54831,-4.54404 -1.50518,-6.58995 0.13895,-6.58995 0.38844,0 1.52211,2.29706 2.51925,5.10458 2.19388,6.17702 8.58442,12.88528 14.96287,15.70676 14.16285,6.26491 30.60011,4.97461 49.58045,-3.89199 15.15142,-7.07793 24.36023,-14.07585 42.84467,-32.55836 9.47735,-9.47635 17.5033,-16.79003 17.83544,-16.25262 0.81107,1.31235 -5.06594,8.36439 -16.56929,19.88209 -22.48497,22.51302 -44.39977,35.43562 -66.05074,38.94843 -7.38591,1.19835 -10.28437,1.18581 -17.90428,-0.0774 z m 334.2042,-17.89312 c -14.85524,-1.87449 -28.99478,-6.31291 -43.24687,-13.57523 -20.61694,-10.50562 -36.96857,-25.31333 -61.31602,-55.52657 -2.84198,-3.52667 -3.39064,-4.76515 -2.29692,-5.18485 0.95076,-0.36484 4.23499,2.89473 9.70636,9.63344 17.6403,21.72636 33.67445,36.35962 50.40658,46.00263 45.20076,26.04995 105.49048,20.8554 155.5,-13.39787 35.5114,-24.32299 62.39439,-63.28471 69.1157,-100.16991 0.78807,-4.32474 1.70685,-6.75 2.55715,-6.75 1.9208,0 1.67093,2.43234 -1.55567,15.14332 -14.98378,59.0276 -69.54625,108.9812 -133.11718,121.87283 -11.99925,2.43334 -34.37425,3.38805 -45.75313,1.95221 z m -322.24687,-1.32085 c -9.08589,-2.04424 -19.12271,-9.9248 -16.27161,-12.7759 0.70093,-0.70093 1.74839,-0.0108 3.30813,2.17968 1.3043,1.83172 4.67824,4.32184 7.87296,5.81061 4.73547,2.20676 6.89057,2.58886 14.09052,2.49826 18.46637,-0.23239 38.7445,-10.91331 62.90998,-33.13604 l 7.40998,-6.81426 -8.40998,-3.20477 c -14.80321,-5.64101 -20.24569,-6.70124 -34.40998,-6.70325 -8.17478,-0.001 -14.85585,0.52233 -18,1.41036 -13.67811,3.86326 -26.03376,12.74816 -31.7068,22.80024 -3.92134,6.94823 -6.05465,5.71042 -2.44273,-1.41736 3.42849,-6.7658 13.52137,-15.8579 22.15456,-19.95778 18.26607,-8.67452 39.77882,-8.49441 63.88767,0.53489 8.92378,3.34215 9.92089,3.96941 10.18049,6.4043 0.24156,2.2657 -1.08051,3.94604 -8.23085,10.46139 -27.34953,24.92069 -53.0399,36.25251 -72.34234,31.90963 z m -97,-6.05954 c 0,-0.22662 0.63404,-3.71412 1.40899,-7.75 3.5431,-18.45243 12.41219,-33.81629 28.20075,-48.85199 15.82296,-15.06846 35.59687,-25.18437 58.89026,-30.127 8.69388,-1.84475 33.29819,-1.57904 42.2253,0.45602 21.53685,4.90962 39.6498,14.32011 61.54408,31.97491 5.69713,4.59398 8.42775,7.41296 7.79425,8.04646 -0.6335,0.6335 -2.93111,-0.56837 -6.55825,-3.43062 -31.34146,-24.73214 -51.7869,-33.88321 -79.50538,-35.58541 -36.42187,-2.23667 -76.77849,17.49691 -96.54938,47.21072 -7.8204,11.75334 -11.91674,21.95172 -13.94539,34.71894 -0.37208,2.34168 -1.14217,3.75 -2.05054,3.75 -0.80008,0 -1.45469,-0.18541 -1.45469,-0.41203 z m 96.72729,-5.51266 c -3.35061,-1.48623 -3.78533,-2.41727 -2.90647,-3.29613 0.87887,-0.87887 2.01608,-0.75051 4.70309,0.53083 4.47797,2.1354 14.96116,2.21925 23.01599,0.1841 8.47159,-2.14044 22.56504,-9.33291 32.31222,-16.49025 4.59366,-3.37313 8.58675,-5.89832 8.87354,-5.61154 3.30925,3.30926 -25.80292,21.37818 -40.37,25.05627 -8.54404,2.15732 -20.07306,2.09088 -25.62837,-0.37328 z m -41.04783,-4.72919 c -1.16998,-1.16997 0.53199,-8.70116 3.42699,-15.16445 5.99824,-13.39144 17.11264,-24.13376 32.36452,-31.28103 11.77329,-5.51716 19.80631,-7.23058 34.02903,-7.25832 17.76998,-0.0347 32.44874,4.17166 52.27837,14.98081 5.94674,3.24157 8.10079,4.89771 7.34854,5.64996 -0.75224,0.75224 -4.22804,-0.57967 -11.8577,-4.54383 -31.03899,-16.12699 -57.33008,-17.6801 -83.26921,-4.91899 -5.58376,2.74701 -9.69672,5.86147 -16.09776,12.18973 -9.28349,9.17794 -13.08936,15.61883 -15.07688,25.51542 -1.055,5.25322 -1.713,6.26361 -3.1459,4.8307 z m 37.42659,-11.71834 c -0.93728,-1.12935 -0.24633,-2.21456 3.52188,-5.53147 5.65772,-4.98012 14.57788,-9.46597 23.37207,-11.75356 8.28057,-2.15398 24.90341,-2.14881 34.8926,0.0108 8.09085,1.74924 8.97007,2.18374 7.46476,3.68905 -0.67907,0.67907 -3.27476,0.46159 -7.93333,-0.66469 -4.10526,-0.9925 -11.19858,-1.69383 -17.42403,-1.72274 -16.71829,-0.0776 -28.30879,3.79247 -37.61395,12.55941 -4.23748,3.99238 -5.3138,4.57736 -6.28,3.41316 z m 298.05786,-8.68153 c -17.79393,-3.18316 -36.96998,-13.18985 -55.09039,-28.74797 -10.92348,-9.37886 -10.6196,-9.0522 -9.48048,-10.19132 0.67643,-0.67643 2.85091,0.63584 6.61969,3.9949 15.22479,13.56964 31.8965,24.06459 45.28727,28.50864 33.39429,11.08269 70.23985,1.22259 96.10391,-25.71802 10.41612,-10.84967 17.30367,-22.09917 21.48706,-35.09498 3.75221,-11.65635 3.62042,-11.38611 4.91921,-10.08732 1.43994,1.43994 -2.33428,14.09183 -6.92231,23.20482 -12.61438,25.05538 -37.49723,45.18548 -64.58787,52.25125 -9.18951,2.3968 -29.79771,3.40742 -38.33609,1.88 z M 400.06661,458.20778 c -1.6198,-2.581 -6.22548,-10.31772 -10.23485,-17.19272 C 355.4827,382.11552 317.8455,347.10294 262.34179,322.41552 229.206,307.6771 195.91956,299.22275 155.87673,295.37469 c -19.8994,-1.9123 -63.38852,-1.34169 -83,1.08902 -16.94075,2.0997 -38.64765,6.0915 -55.30658,10.17064 -15.7053176,3.84563 -15.6934176,3.84407 -15.6934176,2.06235 0,-2.50037 43.1969476,-11.76388 70.9999976,-15.22582 19.56777,-2.43652 63.07346,-3.0111 83,-1.09619 79.31589,7.62214 143.50274,36.27062 191.04754,85.27011 17.07271,17.59508 28.46918,33.18401 47.03906,64.34353 5.72737,9.61031 10.74713,18.00111 11.15502,18.64623 0.4167,0.65907 0.11769,1.41238 -0.68252,1.71945 -0.92389,0.35453 -2.45861,-1.10187 -4.36922,-4.14623 z m 155.54395,3.28649 c -10.28205,-1.94198 -21.64461,-6.41541 -31.8032,-12.5209 -9.68828,-5.82283 -9.3188,-5.52123 -8.46205,-6.90748 0.43935,-0.71087 2.10363,-0.20246 4.85014,1.48164 23.59584,14.46846 43.6432,18.96706 63.68128,14.28998 2.475,-0.57769 8.25592,-2.83295 12.8465,-5.01168 14.25389,-6.76506 26.71927,-21.23863 30.19611,-35.06077 1.16204,-4.61968 2.20967,-5.76885 3.44174,-3.77531 1.02616,1.66035 -4.22645,15.13353 -8.08281,20.73279 -4.65542,6.75946 -13.75556,15.20513 -20.59324,19.11221 -13.35814,7.63288 -30.8337,10.53806 -46.07447,7.65952 z m -140.58623,-7.72921 c -1.14658,-2.8875 -5.5117,-15.15 -9.70027,-27.25 -10.52461,-30.40367 -17.97633,-48.62914 -29.43812,-72 C 330.48155,261.93448 253.0003,178.38723 147.89557,108.67536 128.67836,95.929338 129.17507,96.316718 130.43441,95.057378 c 0.61023,-0.61023 7.91421,3.6993 20.13252,11.878702 105.76211,70.80125 183.63683,154.94003 228.36265,246.73163 9.50977,19.51707 18.37774,41.1261 26.81741,65.34735 5.8795,16.87371 10.02295,28.44443 13.87633,38.75 0.25706,0.6875 -0.20349,1.25 -1.02346,1.25 -0.86709,0 -2.36306,-2.19655 -3.57553,-5.25 z m 15.00705,-4.5 c -0.64111,-3.7125 -2.98361,-22.5 -5.20555,-41.75 C 412.62528,301.81438 394.90598,207.5776 365.34419,91.173008 c -4.6571,-18.33812 -8.46746,-33.97562 -8.46746,-34.75 0,-1.9822 1.65068,-1.75371 2.47104,0.34205 1.3129,3.35402 19.42243,75.925152 24.89179,99.750002 21.19874,92.34293 33.53046,163.95072 44.60293,259 2.1784,18.7 4.25851,35.4625 4.62248,37.25 0.50675,2.48873 0.31864,3.25 -0.80309,3.25 -1.02666,0 -1.81353,-2.01916 -2.6305,-6.75 z m 13.8529,2.5 c 0.004,-0.6875 0.43694,-3.95 0.96174,-7.25 0.5248,-3.3 2.33383,-19.275 4.02007,-35.5 12.09065,-116.33643 31.77741,-222.56097 64.58806,-348.500002 8.06012,-30.9376 8.23986,-31.5 10.06752,-31.5 0.95389,0 1.2994,0.62954 0.96047,1.75 -1.83478,6.06541 -7.64086,28.43814 -14.51704,55.9389 -29.67998,118.702702 -45.76858,206.877912 -57.07609,312.811102 -5.20836,48.794 -5.87928,53.5 -7.62732,53.5 -0.76173,0 -1.38156,-0.5625 -1.37741,-1.25 z m 14.25918,-4.5 c 18.8925,-66.12453 26.51762,-90.04814 38.00831,-119.25 C 537.75704,222.28148 608.81909,114.59857 700.56185,18.265058 713.853,4.3088279 718.87673,0.01216794 718.87673,2.6008579 c 0,0.32219 -6.86255,7.8596901 -15.25011,16.7500001 -74.9122,79.40243 -131.13517,157.456612 -173.71224,241.164202 -25.34479,49.82851 -40.46664,89.09119 -59.11981,153.5 -5.01742,17.325 -9.354,32.2875 -9.63684,33.25 -0.28285,0.9625 -1.18926,1.75 -2.01426,1.75 -0.95238,0 -1.31746,-0.63889 -1.00001,-1.75 z m 93.56413,0.7951 c -7.3495,-1.34766 -15.56229,-3.93288 -22.85928,-7.19563 -9.35432,-4.18265 -9.20165,-5.67428 1.59179,-15.55256 20.73263,-18.97472 42.20908,-30.29691 57.46859,-30.29691 7.21889,0 13.79166,2.74175 18.71375,7.80621 2.90731,2.99141 4.02764,4.82044 3.36097,5.48711 -0.66667,0.66667 -2.44285,-0.48459 -5.32856,-3.45377 -13.49666,-13.88704 -38.95036,-6.41022 -69.69839,20.47335 -5.54385,4.84709 -10.07973,9.17314 -10.07973,9.61343 0,1.12593 10.10285,5.48456 19,8.1971 5.70548,1.73947 10.01233,2.29734 18,2.33157 16.12072,0.0691 25.34948,-3.25498 35.73694,-12.87193 3.24961,-3.00857 6.73153,-7.29554 7.73759,-9.5266 1.66758,-3.69802 4.52547,-5.5828 4.52547,-2.98454 0,2.63629 -5.73598,10.42528 -11.70585,15.89558 -8.96212,8.21215 -18.58588,11.96481 -32.13467,12.53048 -5.31271,0.22181 -11.76059,0.018 -14.32862,-0.45289 z m -78.6915,-2.95897 c -1.46868,-0.9077 15.43245,-40.08937 28.0363,-64.99618 38.29072,-75.66731 95.16229,-137.76779 165.96702,-181.2264 40.30768,-24.7401 83.75496,-41.69683 124.85732,-48.72968 18.31599,-3.13397 19,-3.19122 19,-1.59005 0,1.63135 -0.67514,1.80602 -15.5,4.01016 -81.11572,12.06018 -170.28002,65.93116 -234.11369,141.44602 -29.08796,34.41088 -51.11756,70.69666 -72.85365,120 -14.06564,31.90468 -14.06639,31.9062 -15.3933,31.08613 z m 14.03288,-3.97968 c -2.72202,-1.6823 28.09563,-50.87497 45.48565,-72.60645 53.61482,-66.99989 133.79858,-100.28126 190.5182,-79.07718 12.79133,4.78191 19.22858,8.99525 29.91053,19.57718 8.23505,8.15795 10.24975,10.84205 14.26148,19 5.42638,11.03468 8.49514,22.11678 9.34574,33.75 0.52945,7.24098 0.4016,8.25 -1.04531,8.25 -1.32037,0 -1.65115,-1.04508 -1.66167,-5.25 -0.0177,-7.07921 -3.17021,-21.83664 -6.30739,-29.52608 -6.73083,-16.49772 -20.35922,-30.92947 -36.94997,-39.12809 -12.73705,-6.29424 -23.72043,-9.0323 -39.2295,-9.77956 -55.57789,-2.67786 -118.89966,33.41038 -163.53524,93.20174 -10.72391,14.36515 -19.1196,27.34287 -32.13583,49.67421 -5.19552,8.91372 -7.77263,12.46061 -8.65669,11.91423 z m 65.82776,-0.77256 c -10.29298,-1.62111 -17,-3.59791 -17,-5.01051 0,-1.18641 0.63169,-1.37641 2.75,-0.82715 6.12648,1.58853 18.02498,3.43608 22.34004,3.46888 5.94917,0.0452 19.12451,-3.33937 23.77216,-6.10678 2.00079,-1.19136 5.49773,-3.93895 7.77097,-6.10577 5.54031,-5.28092 7.09684,-3.11694 1.73163,2.40743 -8.69206,8.94992 -27.21751,14.40206 -41.3648,12.1739 z m -51.52651,-3.61572 c -1.25487,-3.14087 20.60399,-30.94462 37.95324,-48.27528 21.70622,-21.68295 40.07808,-33.47517 62.39735,-40.05056 10.08382,-2.97075 25.80504,-4.16048 34.17592,-2.58632 22.52222,4.23536 37.45044,19.36565 41.38382,41.94399 0.72227,4.14602 -2.06353,4.62464 -2.91023,0.5 -3.52025,-17.14854 -11.35256,-28.06034 -24.97359,-34.79262 -33.00132,-16.31113 -81.95766,4.25837 -121.45217,51.02935 -6.07172,7.19037 -19.90942,25.23927 -24.21,31.57777 -1.49258,2.19987 -1.72133,2.26311 -2.36434,0.65367 z m 13.70319,-5.13773 c 0.58761,-2.57992 17.81268,-20.43791 27.6519,-28.66794 17.69333,-14.79962 32.81688,-22.53858 48.82262,-24.98328 13.59536,-2.07655 24.95216,1.40509 32.4802,9.9574 5.07924,5.77032 8.71141,17.11338 5.47989,17.11338 -0.80989,0 -1.67829,-1.54361 -2.08349,-3.70349 -4.04514,-21.56244 -29.99293,-27.23977 -58.48473,-12.79634 -13.41499,6.80049 -32.25945,22.2367 -45.04307,36.89646 -6.10613,7.00228 -9.56128,9.42381 -8.82332,6.18381 z m 20.82332,-2.87495 c 0,-1.6679 7.64881,-7.48424 18.11187,-13.77273 15.54393,-9.34217 31.3164,-12.3563 40.54377,-7.74793 2.93143,1.46403 4.04308,2.51645 3.36954,3.18999 -0.67354,0.67354 -2.17435,0.4476 -4.54909,-0.68483 -4.49468,-2.14336 -13.4348,-2.18361 -20.54459,-0.0925 -7.57038,2.22659 -19.55181,8.61058 -28.1558,15.00208 -7.64772,5.68113 -8.7757,6.20887 -8.7757,4.1059 z"
     style="fill:#000000;stroke:#000000;stroke-width:3.75;stroke-miterlimit:4;stroke-dasharray:none;stroke-opacity:1"
     sodipodi:nodetypes="cssssssssccsssssssssssssssssssssssssssssscsssssssssscsssssssssssssssssssssssssssscssssscsssccssssssssssssscsssssssssccsssssssssssssssssscscsssssssssssssssssssssssssscssssssssssssscsssssssccssssssssssssssssssssssssssssssssssssssssssssssssssssssssscsssssssscssssssssssssssssssssssssssssssssssssssssssssssssssssssssssssssssssssssssssssscsssssscc" />
  <path
     style="fill:none;fill-rule:evenodd;stroke:#000000;stroke-width:6.25;stroke-linecap:butt;stroke-linejoin:miter;stroke-miterlimit:4;stroke-dasharray:none;stroke-opacity:1"
     d="m 606.50976,423.18056 c 2.13403,-2.06832 4.04648,-6.78222 3.37566,-11.53326 -0.30997,-2.19534 -0.42151,-3.11735 -2.8176,-6.35246"
     id="path23893-3-6-7"
     inkscape:connector-curvature="0"
     sodipodi:nodetypes="csc" />
  <g
     inkscape:groupmode="layer"
     id="layer1"
     inkscape:label="triangle"
     style="display:inline"
     transform="translate(-253.12327,-51.984944)">
    <path
       style="fill:#f3f7fb;fill-opacity:1"
       d="m 660.86432,600.76817 c -49.03893,-0.52628 -90.2015,-1.17854 -91.47237,-1.44944 -1.27089,-0.27091 -18.32307,-17.42646 -37.89372,-38.12344 -19.57066,-20.69698 -39.30762,-41.5463 -43.85993,-46.33186 -8.13198,-8.54863 -8.23931,-8.73717 -6.12986,-10.76739 1.90216,-1.8307 113.3074,-74.12224 118.5516,-76.92886 2.51678,-1.34694 198.52591,0.32332 200.83904,1.71141 3.58521,2.15148 104.60093,80.02181 104.58551,80.62219 -0.0397,1.54415 -4.09314,5.07166 -54.94719,47.81727 l -53.29248,44.79526 -23.60946,-0.19412 c -12.98521,-0.10678 -63.73222,-0.62473 -112.77114,-1.15102 z"
       id="path23862"
       inkscape:connector-curvature="0" />
    <g
       id="g24105"
       transform="matrix(0.93761862,0,0,0.93761862,163.08265,-15.707622)">
      <path
         style="fill:#dbe7f2"
         d="m 534.95994,644.67481 c -44.80745,-0.48087 -82.41818,-1.07684 -83.5794,-1.32438 -1.16123,-0.24754 -16.742,-15.92276 -34.62394,-34.83383 -17.88195,-18.91108 -35.91584,-37.96136 -40.07534,-42.33398 -7.43029,-7.81099 -7.52836,-7.98326 -5.60093,-9.83829 1.73802,-1.67273 103.53032,-67.72639 108.32201,-70.29083 2.29961,-1.23071 181.39551,0.29542 183.50903,1.56374 3.27585,1.96583 95.57512,73.11689 95.56104,73.66546 -0.0362,1.41091 -3.73997,4.63404 -50.20591,43.69121 l -48.69398,40.92997 -21.57225,-0.17738 c -11.86473,-0.0976 -58.23289,-0.57082 -103.04033,-1.05169 z"
         id="path23827"
         inkscape:connector-curvature="0" />
      <path
         style="fill:#a9cde1"
         d="m 531.39571,621.51706 c -30.90377,-0.34503 -51.00719,-0.95681 -51.95597,-1.58113 -4.32471,-2.84577 -60.87732,-61.30863 -60.25976,-62.29524 0.38845,-0.62059 18.80747,-13.10109 40.93115,-27.73444 l 40.22487,-26.60608 68.7387,0.66078 c 37.80628,0.36342 69.27008,0.94402 69.91956,1.29021 3.58677,1.91188 69.50064,54.79721 69.54342,55.79746 0.0281,0.65748 -16.70537,14.74891 -37.18551,31.3143 l -37.23664,30.11888 -26.15572,-0.20098 c -14.38565,-0.11055 -48.83949,-0.45424 -76.5641,-0.76376 z"
         id="path23823"
         inkscape:connector-curvature="0" />
      <path
         style="fill:#539bc9"
         d="m 512.95286,599.33536 c -4.56946,-0.36557 -5.24553,-0.90959 -25.26288,-20.32846 -12.0737,-11.71272 -20.19209,-20.32851 -19.6581,-20.8625 0.50033,-0.50033 12.55601,-8.95269 26.79041,-18.78304 l 25.88073,-17.87336 34.11476,0.59607 c 18.76312,0.32783 39.84299,0.60849 46.84415,0.62367 l 12.72939,0.0276 19.85785,16.33827 c 10.92181,8.98606 21.16312,17.62057 22.75843,19.18782 l 2.90059,2.84954 -24.79513,19.44566 -24.79514,19.44568 -46.33498,-0.14567 c -25.48423,-0.0802 -48.44778,-0.3147 -51.03008,-0.52128 z"
         id="path23815"
         inkscape:connector-curvature="0" />
      <path
         style="fill:#1a66aa"
         d="m 530.65809,573.71618 c -9.76912,-8.48761 -14.87893,-14.01442 -14.10893,-15.26032 0.3644,-0.5896 6.23658,-4.98442 13.04929,-9.76625 l 12.38675,-8.69425 14.30851,0.11962 c 7.86968,0.0658 18.73286,0.40948 24.1404,0.76376 l 9.83188,0.64415 10.25906,8.65599 c 5.64247,4.76079 10.26872,9.18283 10.28054,9.82677 0.0118,0.64393 -5.49107,5.34108 -12.22864,10.4381 l -12.25014,9.26731 h -24.38435 -24.38435 z"
         id="path23811"
         inkscape:connector-curvature="0" />
    </g>
    <path
       style="fill:#bababa;fill-opacity:1;stroke:#bababa;stroke-width:3.75;stroke-miterlimit:4;stroke-dasharray:none;stroke-opacity:1"
       d="m 666.88212,603.15292 c -50.6,-0.68075 -94.28122,-1.28427 -97.06937,-1.34117 l -5.06938,-0.10344 -43.43062,-47.01321 c -26.76654,-28.9745 -43.54575,-47.90225 -43.73067,-49.33026 -0.26691,-2.06113 6.51735,-6.65916 61.42624,-41.63156 l 61.72629,-39.31453 100.07376,0.72411 c 91.01709,0.65858 100.31065,0.8753 102.6914,2.39478 1.43971,0.91887 25.85221,19.20343 54.25,40.63235 40.85546,30.82946 51.63235,39.42309 51.63235,41.17229 0,1.68112 -12.39517,12.83096 -51.75,46.55073 -28.4625,24.38706 -53.04819,45.34703 -54.63486,46.57771 -3.40622,2.64197 6.03697,2.59465 -136.11514,0.6822 z m 123.97222,-5.37416 c -10.40676,-10.18158 -98.17893,-87.01324 -99.03033,-86.68652 -0.61671,0.23665 -27.48123,19.70958 -59.69894,43.27317 l -58.57765,42.8429 15.16735,0.28408 c 35.44079,0.66379 137.81446,1.90279 169.63957,2.0531 34.06623,0.1609 34.449,0.1401 32.5,-1.76673 z m 60.3182,-42.57045 50.15248,-43 -21.72145,-0.61746 c -11.9468,-0.33961 -57.49645,-0.93694 -101.22145,-1.32741 l -79.5,-0.70995 4,3.48137 c 2.2,1.91476 24.7,21.95495 50,44.53377 25.3,22.57882 46.48104,40.95953 47.06897,40.84604 0.58793,-0.1135 23.63758,-19.55636 51.22145,-43.20636 z m -224.88949,-2.5 58.18371,-42.5 -9.29232,-0.61662 c -16.32551,-1.08332 -190.05807,-2.16698 -189.66196,-1.18302 0.93165,2.31429 80.452,87.32698 81.45367,87.07955 0.62326,-0.15395 27.31586,-19.40491 59.3169,-42.77991 z m -19.15093,-46.72847 c -2.0625,-0.21574 -5.4375,-0.21574 -7.5,0 -2.0625,0.21575 -0.375,0.39226 3.75,0.39226 4.125,0 5.8125,-0.17651 3.75,-0.39226 z m 292.7,-0.12078 c -0.5225,-0.46709 -22.95215,-17.40709 -49.84366,-37.64445 -46.64877,-35.1058 -48.99849,-36.73118 -51.1769,-35.40075 -5.45483,3.33144 -98.14959,71.43825 -97.77861,71.84213 0.44,0.47904 93.97707,1.57477 159.79917,1.87195 21.9725,0.0992 39.5225,-0.20179 39,-0.66888 z m -217.46667,-4.50084 c -2.87085,-2.76103 -73.62846,-65.68793 -79.16587,-70.40462 -1.50841,-1.28484 -7.58082,2.32708 -58.67629,34.90115 -31.34657,19.98386 -56.84333,36.48473 -56.65947,36.66859 0.35971,0.35971 114.79512,1.74769 166.50163,2.01948 l 31.48334,0.16549 z m 60.94698,-34.14991 49.25172,-36 -14.34101,-0.63824 c -7.88756,-0.35104 -49.43421,-0.89978 -92.32588,-1.21943 l -77.98486,-0.58118 4.48486,3.87093 c 2.46667,2.12902 21.35986,18.96339 41.98486,37.40971 20.625,18.44633 37.99018,33.45315 38.58929,33.3485 0.59912,-0.10466 23.25257,-16.39029 50.34102,-36.19029 z m -48.15388,-40.22689 c -1.3e-4,0 0,-5.2e-4 0,-3.9e-4 z"
       id="path23603"
       inkscape:connector-curvature="0"
       sodipodi:nodetypes="sscssscsssssssscscsssscsscsscsscssssssssssscssssssscsscsscsscsccc" />
  </g>
  <path
     style="fill:none;fill-rule:evenodd;stroke:#000000;stroke-width:6.25;stroke-linecap:round;stroke-linejoin:miter;stroke-miterlimit:4;stroke-dasharray:none;stroke-opacity:1"
     d="m 268.46156,509.18553 c -5.65826,-5.58925 -1.95213,-13.44248 0.621,-17.73109 1.05091,-1.75155 0.32499,-0.20146 2.82645,-2.56609"
     id="path23893-5-3-6-2-9"
     inkscape:connector-curvature="0"
     sodipodi:nodetypes="csc" />
  <path
     style="fill:#000000;stroke:#000000;stroke-width:3.75;stroke-miterlimit:4;stroke-dasharray:none;stroke-opacity:1"
     d="m 51.18702,539.26506 c 1.28586,-24.99111 11.34606,-50.7278 29.31854,-75.00475 7.60067,-10.26686 27.6941,-30.20901 38.70579,-38.41439 28.86638,-21.50981 62.05787,-35.2398 97.66538,-40.40023 15.81999,-2.29273 47.31234,-1.53315 60.82584,1.46708 28.43683,6.31346 51.52567,17.69176 73.67416,36.30698 15.20929,12.78301 40.29861,40.41096 38.39667,42.28178 -0.7001,0.68864 -1.89049,0.029 -3.71353,-2.0579 -25.07954,-28.70897 -35.58381,-38.79849 -51.61909,-49.58095 -67.0126,-45.06065 -164.75844,-32.75632 -230.71589,29.04272 -30.40894,28.49176 -49.84816,67.37947 -49.84816,99.72013 0,7.12378 -0.24851,8.38953 -1.64714,8.38953 -1.47037,0 -1.58226,-1.26102 -1.04257,-11.75 z m 300.00967,-60.84014 -8.40998,-3.20477 c -14.80321,-5.64101 -20.24569,-6.70124 -34.40998,-6.70325 -8.17478,-0.001 -14.85585,0.52233 -18,1.41036 -13.67811,3.86326 -26.03376,12.74816 -31.7068,22.80024 -3.92134,6.94823 -6.05465,5.71042 -2.44273,-1.41736 3.42849,-6.7658 13.52137,-15.8579 22.15456,-19.95778 18.26607,-8.67452 39.77882,-8.49441 63.88767,0.53489 8.92378,3.34215 9.92089,3.96941 10.18049,6.4043 -0.57319,0.37976 -0.57319,0.25476 -1.25323,0.13337 z m -176.31996,36.17811 c 0,-0.22662 0.63404,-3.71412 1.40899,-7.75 3.5431,-18.45243 12.41219,-33.81629 28.20075,-48.85199 15.82296,-15.06846 35.59687,-25.18437 58.89026,-30.127 8.69388,-1.84475 33.29819,-1.57904 42.2253,0.45602 21.53685,4.90962 39.6498,14.32011 61.54408,31.97491 5.69713,4.59398 8.42775,7.41296 7.79425,8.04646 -0.6335,0.6335 -2.93111,-0.56837 -6.55825,-3.43062 -31.34146,-24.73214 -51.7869,-33.88321 -79.50538,-35.58541 -36.42187,-2.23667 -76.77849,17.49691 -96.54938,47.21072 -7.8204,11.75334 -11.91674,21.95172 -13.94539,34.71894 -0.37208,2.34168 -1.14217,3.75 -2.05054,3.75 -0.80008,0 -1.45469,-0.18541 -1.45469,-0.41203 z m 55.67946,-10.24185 c -1.16998,-1.16997 0.53199,-8.70116 3.42699,-15.16445 5.99824,-13.39144 17.11264,-24.13376 32.36452,-31.28103 11.77329,-5.51716 19.80631,-7.23058 34.02903,-7.25832 17.76998,-0.0347 32.44874,4.17166 52.27837,14.98081 5.94674,3.24157 8.10079,4.89771 7.34854,5.64996 -0.75224,0.75224 -4.22804,-0.57967 -11.8577,-4.54383 -31.03899,-16.12699 -57.33008,-17.6801 -83.26921,-4.91899 -5.58376,2.74701 -9.69672,5.86147 -16.09776,12.18973 -9.28349,9.17794 -13.08936,15.61883 -15.07688,25.51542 -1.055,5.25322 -1.713,6.26361 -3.1459,4.8307 z m 37.42659,-11.71834 c -0.93728,-1.12935 -0.24633,-2.21456 3.52188,-5.53147 5.65772,-4.98012 14.57788,-9.46597 23.37207,-11.75356 8.28057,-2.15398 24.90341,-2.14881 34.8926,0.0108 8.09085,1.74924 8.97007,2.18374 7.46476,3.68905 -0.67907,0.67907 -3.27476,0.46159 -7.93333,-0.66469 -4.10526,-0.9925 -11.19858,-1.69383 -17.42403,-1.72274 -16.71829,-0.0776 -28.30879,3.79247 -37.61395,12.55941 -4.23748,3.99238 -5.3138,4.57736 -6.28,3.41316 z m 132.08383,-34.43506 c -1.6198,-2.581 -6.22548,-10.31772 -10.23485,-17.19272 C 355.4827,382.11552 317.8455,347.10294 262.34179,322.41552 229.206,307.6771 195.91956,299.22275 155.87673,295.37469 c -19.8994,-1.9123 -63.38852,-1.34169 -83,1.08902 -16.94075,2.0997 -38.64765,6.0915 -55.30658,10.17064 -15.7052876,3.84563 -15.6934176,3.84407 -15.6934176,2.06235 0,-2.50037 43.1969476,-11.76388 70.9999976,-15.22582 19.56777,-2.43652 63.07346,-3.0111 83,-1.09619 79.31589,7.62214 143.50274,36.27062 191.04754,85.27011 17.07271,17.59508 28.46918,33.18401 47.03906,64.34353 5.72737,9.61031 10.74713,18.00111 11.15502,18.64623 0.4167,0.65907 0.11769,1.41238 -0.68252,1.71945 -0.92389,0.35453 -2.45861,-1.10187 -4.36922,-4.14623 z m 14.95772,-4.44272 c -1.14658,-2.8875 -5.5117,-15.15 -9.70027,-27.25 -10.52461,-30.40367 -17.97633,-48.62914 -29.43812,-72 C 330.48155,261.93448 253.0003,178.38723 147.89557,108.67536 128.67836,95.929338 129.17507,96.316718 130.43441,95.057378 c 0.61023,-0.61023 7.91421,3.6993 20.13252,11.878702 105.76211,70.80125 183.63683,154.94003 228.36265,246.73163 9.50977,19.51707 18.37774,41.1261 26.81741,65.34735 5.8795,16.87371 10.02295,28.44443 13.87633,38.75 0.25706,0.6875 -0.20349,1.25 -1.02346,1.25 -0.86709,0 -2.36306,-2.19655 -3.57553,-5.25 z m 15.00705,-4.5 c -0.64111,-3.7125 -2.98361,-22.5 -5.20555,-41.75 C 412.62528,301.81438 394.90598,207.5776 365.34419,91.173008 c -4.6571,-18.33812 -8.46746,-33.97562 -8.46746,-34.75 0,-1.9822 1.65068,-1.75371 2.47104,0.34205 1.3129,3.35402 19.42243,75.925152 24.89179,99.750002 21.19874,92.34293 33.53046,163.95072 44.60293,259 2.1784,18.7 4.25851,35.4625 4.62248,37.25 0.50675,2.48873 0.31864,3.25 -0.80309,3.25 -1.02666,0 -1.81353,-2.01916 -2.6305,-6.75 z m 13.8529,2.5 c 0.004,-0.6875 0.43694,-3.95 0.96174,-7.25 0.5248,-3.3 2.33383,-19.275 4.02007,-35.5 12.09065,-116.33643 31.77741,-222.56097 64.58806,-348.500002 8.06012,-30.9376 8.23986,-31.5 10.06752,-31.5 0.95389,0 1.2994,0.62954 0.96047,1.75 -1.83478,6.06541 -7.64086,28.43814 -14.51704,55.9389 -29.67998,118.702702 -45.76858,206.877912 -57.07609,312.811102 -5.20836,48.794 -5.87928,53.5 -7.62732,53.5 -0.76173,0 -1.38156,-0.5625 -1.37741,-1.25 z m 14.25918,-4.5 c 18.8925,-66.12453 26.51762,-90.04814 38.00831,-119.25 C 537.75704,222.28148 608.81909,114.59857 700.56185,18.265058 713.853,4.3088279 718.87673,0.01216794 718.87673,2.6008579 c 0,0.32219 -6.86255,7.8596901 -15.25011,16.7500001 -74.9122,79.40243 -131.13517,157.456612 -173.71224,241.164202 -25.34479,49.82851 -40.46664,89.09119 -59.11981,153.5 -5.01742,17.325 -9.354,32.2875 -9.63684,33.25 -0.28285,0.9625 -1.18926,1.75 -2.01426,1.75 -0.95238,0 -1.31746,-0.63889 -1.00001,-1.75 z m 72.29664,-21.95309 c 20.73263,-18.97472 42.20908,-30.29691 57.46859,-30.29691 7.21889,0 13.79166,2.74175 18.71375,7.80621 2.90731,2.99141 4.02764,4.82044 3.36097,5.48711 -0.66667,0.66667 -2.44285,-0.48459 -5.32856,-3.45377 -13.49666,-13.88704 -38.95036,-6.41022 -69.69839,20.47335 -5.54385,4.84709 -10.07973,9.17314 -10.07973,9.61343 -2,3.07367 -6,0.0737 5.56337,-9.62942 z m -57.42401,19.78922 c -1.46868,-0.9077 15.43245,-40.08937 28.0363,-64.99618 38.29072,-75.66731 95.16229,-137.76779 165.96702,-181.2264 40.30768,-24.7401 83.75496,-41.69683 124.85732,-48.72968 18.31599,-3.13397 19,-3.19122 19,-1.59005 0,1.63135 -0.67514,1.80602 -15.5,4.01016 -81.11572,12.06018 -170.28002,65.93116 -234.11369,141.44602 -29.08796,34.41088 -51.11756,70.69666 -72.85365,120 -14.06564,31.90468 -14.06639,31.9062 -15.3933,31.08613 z m 14.03288,-3.97968 c -2.72202,-1.6823 28.09563,-50.87497 45.48565,-72.60645 53.61482,-66.99989 133.79858,-100.28126 190.5182,-79.07718 12.79133,4.78191 19.22858,8.99525 29.91053,19.57718 8.23505,8.15795 10.24975,10.84205 14.26148,19 5.42638,11.03468 8.49514,22.11678 9.34574,33.75 0.52945,7.24098 0.4016,8.25 -1.04531,8.25 -1.32037,0 -1.65115,-1.04508 -1.66167,-5.25 -0.0177,-7.07921 -3.17021,-21.83664 -6.30739,-29.52608 -6.73083,-16.49772 -20.35922,-30.92947 -36.94997,-39.12809 -12.73705,-6.29424 -23.72043,-9.0323 -39.2295,-9.77956 -55.57789,-2.67786 -118.89966,33.41038 -163.53524,93.20174 -10.72391,14.36515 -19.1196,27.34287 -32.13583,49.67421 -5.19552,8.91372 -7.77263,12.46061 -8.65669,11.91423 z m 14.30125,-4.38828 c -1.25487,-3.14087 20.60399,-30.94462 37.95324,-48.27528 21.70622,-21.68295 40.07808,-33.47517 62.39735,-40.05056 10.08382,-2.97075 25.80504,-4.16048 34.17592,-2.58632 22.52222,4.23536 37.45044,19.36565 41.38382,41.94399 0.72227,4.14602 -2.06353,4.62464 -2.91023,0.5 -3.52025,-17.14854 -11.35256,-28.06034 -24.97359,-34.79262 -33.00132,-16.31113 -81.95766,4.25837 -121.45217,51.02935 -6.07172,7.19037 -19.90942,25.23927 -24.21,31.57777 -1.49258,2.19987 -1.72133,2.26311 -2.36434,0.65367 z m 13.70319,-5.13773 c 0.58761,-2.57992 17.81268,-20.43791 27.6519,-28.66794 17.69333,-14.79962 32.81688,-22.53858 48.82262,-24.98328 13.59536,-2.07655 24.95216,1.40509 32.4802,9.9574 5.07924,5.77032 8.71141,17.11338 5.47989,17.11338 -0.80989,0 -1.67829,-1.54361 -2.08349,-3.70349 -4.04514,-21.56244 -29.99293,-27.23977 -58.48473,-12.79634 -13.41499,6.80049 -32.25945,22.2367 -45.04307,36.89646 -6.10613,7.00228 -9.56128,9.42381 -8.82332,6.18381 z m 20.82332,-2.87495 c 0,-1.6679 7.64881,-7.48424 18.11187,-13.77273 15.54393,-9.34217 31.3164,-12.3563 40.54377,-7.74793 2.93143,1.46403 4.04308,2.51645 3.36954,3.18999 -0.67354,0.67354 -2.17435,0.4476 -4.54909,-0.68483 -4.49468,-2.14336 -13.4348,-2.18361 -20.54459,-0.0925 -7.57038,2.22659 -19.55181,8.61058 -28.1558,15.00208 -7.64772,5.68113 -8.7757,6.20887 -8.7757,4.1059 z"
     id="path23454"
     inkscape:connector-curvature="0"
     sodipodi:nodetypes="ssssssssssssscscsssssccsssssssssssssssssssssssscsssssssccssssssssssssssssssssssssssssssssssscsssssssscsssssssssscsssssccsssssssssssssssssssssssssssssssssssssssssscsssssscc" />
  <path
     style="fill:none;fill-rule:evenodd;stroke:#000000;stroke-width:6.875;stroke-linecap:butt;stroke-linejoin:miter;stroke-miterlimit:4;stroke-dasharray:none;stroke-opacity:1"
     d="m 774.18923,386.64006 c 1.38063,-11.78952 1.19666,-15.68093 1.125,-21.0625"
     id="path23893"
     inkscape:connector-curvature="0"
     sodipodi:nodetypes="cc" />
  <path
     style="fill:none;fill-rule:evenodd;stroke:#000000;stroke-width:6.875;stroke-linecap:butt;stroke-linejoin:miter;stroke-miterlimit:4;stroke-dasharray:none;stroke-opacity:1"
     d="m 674.36601,411.37489 c 2.51072,-8.35983 2.51072,-15.35983 1.56694,-23.09543"
     id="path23893-3"
     inkscape:connector-curvature="0"
     sodipodi:nodetypes="cc" />
  <path
     style="fill:none;fill-rule:evenodd;stroke:#000000;stroke-width:6.25;stroke-linecap:butt;stroke-linejoin:miter;stroke-miterlimit:4;stroke-dasharray:none;stroke-opacity:1"
     d="m 627.74101,420.62489 c 2.51072,-8.35983 2.12055,-12.27144 1.17677,-20.00704"
     id="path23893-3-6"
     inkscape:connector-curvature="0"
     sodipodi:nodetypes="cc" />
  <path
     style="fill:none;fill-rule:evenodd;stroke:#000000;stroke-width:6.875;stroke-linecap:butt;stroke-linejoin:miter;stroke-miterlimit:4;stroke-dasharray:none;stroke-opacity:1"
     d="m 55.51506,572.43556 c -2.63833,-8.4205 -2.63833,-13.4205 -3.02926,-24.59804"
     id="path23893-5"
     inkscape:connector-curvature="0"
     sodipodi:nodetypes="cc" />
  <path
     style="fill:none;fill-rule:evenodd;stroke:#000000;stroke-width:6.25;stroke-linecap:butt;stroke-linejoin:miter;stroke-miterlimit:4;stroke-dasharray:none;stroke-opacity:1"
     d="m 179.63118,537.25878 c -2.75445,-6.24372 -4.75445,-15.24372 -2.7641,-25.79128"
     id="path23893-5-3"
     inkscape:connector-curvature="0"
     sodipodi:nodetypes="cc" />
  <path
     style="fill:none;fill-rule:evenodd;stroke:#000000;stroke-width:6.25;stroke-linecap:butt;stroke-linejoin:miter;stroke-miterlimit:4;stroke-dasharray:none;stroke-opacity:1"
     d="m 235.0506,521.43035 c -2.75445,-6.24372 -4.86114,-13.91881 -2.64982,-23.42218"
     id="path23893-5-3-6"
     inkscape:connector-curvature="0"
     sodipodi:nodetypes="cc" />
  <path
     style="fill:none;fill-rule:evenodd;stroke:#000000;stroke-width:6.25;stroke-linecap:butt;stroke-linejoin:miter;stroke-miterlimit:4;stroke-dasharray:none;stroke-opacity:1"
     d="m 261.03694,513.95547 c -7.36806,-5.82802 -10.40486,-11.86592 -2.64982,-23.42218"
     id="path23893-5-3-6-2"
     inkscape:connector-curvature="0"
     sodipodi:nodetypes="cc" />
  <flowRoot
     xml:space="preserve"
     id="flowRoot3729"
     style="font-style:normal;font-weight:normal;font-size:40px;line-height:1.25;font-family:sans-serif;letter-spacing:0px;word-spacing:0px;fill:#000000;fill-opacity:1;stroke:none"
     transform="matrix(1.5238963,0,0,1.5238963,-633.80795,33.213808)"><flowRegion
       id="flowRegion3731"><rect
         id="rect3733"
         width="1497"
         height="351"
         x="1002"
         y="57" /></flowRegion><flowPara
       id="flowPara3735"
       style="font-style:normal;font-variant:normal;font-weight:normal;font-stretch:normal;font-size:192px;font-family:'Segoe UI';-inkscape-font-specification:'Segoe UI'">bfieldtools</flowPara></flowRoot>  <rect
     id="rect3739"
     width="1368"
     height="6"
     x="900.28931"
     y="428.14178"
     style="fill:url(#radialGradient4554);fill-opacity:1;stroke:none;stroke-width:0.57735026" />
</svg>
