<?xml version="1.0" encoding="UTF-8" standalone="no"?>
<svg
   xmlns:dc="http://purl.org/dc/elements/1.1/"
   xmlns:cc="http://creativecommons.org/ns#"
   xmlns:rdf="http://www.w3.org/1999/02/22-rdf-syntax-ns#"
   xmlns:svg="http://www.w3.org/2000/svg"
   xmlns="http://www.w3.org/2000/svg"
   xmlns:sodipodi="http://sodipodi.sourceforge.net/DTD/sodipodi-0.dtd"
   xmlns:inkscape="http://www.inkscape.org/namespaces/inkscape"
   width="599pt"
   height="548pt"
   viewBox="0.00 0.00 599.00 548.00"
   version="1.1"
   id="svg308"
   sodipodi:docname="packages_bfieldtools.svg"
   inkscape:version="1.0 (4035a4fb49, 2020-05-01)">
  <metadata
     id="metadata314">
    <rdf:RDF>
      <cc:Work
         rdf:about="">
        <dc:format>image/svg+xml</dc:format>
        <dc:type
           rdf:resource="http://purl.org/dc/dcmitype/StillImage" />
        <dc:title />
      </cc:Work>
    </rdf:RDF>
  </metadata>
  <defs
     id="defs312" />
  <sodipodi:namedview
     inkscape:document-rotation="0"
     pagecolor="#ffffff"
     bordercolor="#666666"
     borderopacity="1"
     objecttolerance="10"
     gridtolerance="10"
     guidetolerance="10"
     inkscape:pageopacity="0"
     inkscape:pageshadow="2"
     inkscape:window-width="3840"
     inkscape:window-height="2063"
     id="namedview310"
     showgrid="false"
     inkscape:zoom="2.334854"
     inkscape:cx="326.86988"
     inkscape:cy="390.52639"
     inkscape:window-x="0"
     inkscape:window-y="0"
     inkscape:window-maximized="1"
     inkscape:current-layer="svg308" />
  <polygon
     id="polygon4"
     points="595,-544 595,4 -4,4 -4,-544 "
     stroke="transparent"
     fill="#ffffff"
     transform="translate(4,544)" />
  <polygon
     fill="none"
     stroke="#000000"
     points="248.5,-36 138.5,-36 138.5,0 248.5,0 "
     id="polygon8"
     transform="translate(4,544)" />
  <text
     text-anchor="middle"
     x="197.5"
     y="529.70001"
     font-family="Times, serif"
     font-size="14px"
     fill="#000000"
     id="text10"
     style="letter-spacing:0px;-inkscape-font-specification:sans-serif;font-family:sans-serif;font-weight:normal;font-style:normal;font-stretch:normal;font-variant:normal;">coil_optimize</text>
  <polygon
     fill="none"
     stroke="#000000"
     points="260,-108 127,-108 127,-72 260,-72 "
     id="polygon15"
     transform="translate(4,544)" />
  <text
     text-anchor="middle"
     x="197.5"
     y="457.70001"
     font-family="Times, serif"
     font-size="14px"
     fill="#000000"
     id="text17"
     style="letter-spacing:0px;-inkscape-font-specification:sans-serif;font-family:sans-serif;font-weight:normal;font-style:normal;font-stretch:normal;font-variant:normal;">mesh_conductor</text>
  <path
     fill="none"
     stroke="#000000"
     d="m 197.5,507.8314 c 0,-7.7004 0,-16.8571 0,-25.4148"
     id="path22"
     inkscape:connector-curvature="0" />
  <polygon
     fill="#000000"
     stroke="#000000"
     points="193.5001,-61.5867 193.5001,-61.5867 193.5,-66.5867 198.0001,-61.5868 193.5,-71.5867 189.0001,-61.5867 193.5,-66.5867 193.5001,-61.5867 "
     id="polygon24"
     transform="translate(4,544)" />
  <polygon
     fill="none"
     stroke="#000000"
     points="426,-252 355,-252 355,-216 426,-216 "
     id="polygon29"
     transform="translate(4,544)" />
  <text
     text-anchor="middle"
     x="394.5"
     y="313.70001"
     font-family="Times, serif"
     font-size="14px"
     fill="#000000"
     id="text31"
     style="letter-spacing:0px;-inkscape-font-specification:sans-serif;font-family:sans-serif;font-weight:normal;font-style:normal;font-stretch:normal;font-variant:normal;">contour</text>
  <polygon
     fill="none"
     stroke="#000000"
     points="395,-468 276,-468 276,-432 395,-432 "
     id="polygon36"
     transform="translate(4,544)" />
  <text
     text-anchor="middle"
     x="339.5"
     y="97.700012"
     font-family="Times, serif"
     font-size="14px"
     fill="#000000"
     id="text38"
     style="letter-spacing:0px;-inkscape-font-specification:sans-serif;font-family:sans-serif;font-weight:normal;font-style:normal;font-stretch:normal;font-variant:normal;">mesh_calculus</text>
  <path
     fill="none"
     stroke="#000000"
     d="M 410.9281,291.989 C 418.8025,282.1289 427.398,269.2441 431.5,256 c 4.7338,-15.2837 4.2552,-20.5762 0,-36 -11.0498,-40.0525 -41.8904,-77.3461 -64.8365,-100.8061"
     id="path43"
     inkscape:connector-curvature="0" />
  <polygon
     fill="#000000"
     stroke="#000000"
     points="362.6074,-424.862 362.6074,-424.862 359.0667,-428.3924 365.7847,-428.0487 355.526,-431.9228 359.43,-421.6754 359.0667,-428.3924 362.6074,-424.862 "
     id="polygon45"
     transform="translate(4,544)" />
  <polygon
     fill="none"
     stroke="#000000"
     points="375.5,-396 295.5,-396 295.5,-360 375.5,-360 "
     id="polygon50"
     transform="translate(4,544)" />
  <text
     text-anchor="middle"
     x="339.5"
     y="169.70001"
     font-family="Times, serif"
     font-size="14px"
     fill="#000000"
     id="text52"
     style="letter-spacing:0px;-inkscape-font-specification:sans-serif;font-family:sans-serif;font-weight:normal;font-style:normal;font-stretch:normal;font-variant:normal;">integrals</text>
  <path
     fill="none"
     stroke="#000000"
     d="m 339.5,147.8314 c 0,-7.7004 0,-16.8571 0,-25.4148"
     id="path57"
     inkscape:connector-curvature="0" />
  <polygon
     fill="#000000"
     stroke="#000000"
     points="335.5001,-421.5867 335.5001,-421.5867 335.5,-426.5867 340.0001,-421.5868 335.5,-431.5867 331.0001,-421.5867 335.5,-426.5867 335.5001,-421.5867 "
     id="polygon59"
     transform="translate(4,544)" />
  <polygon
     fill="none"
     stroke="#000000"
     points="343,-180 222,-180 222,-144 343,-144 "
     id="polygon64"
     transform="translate(4,544)" />
  <text
     text-anchor="middle"
     x="286.5"
     y="385.70001"
     font-family="Times, serif"
     font-size="14px"
     fill="#000000"
     id="text66"
     style="letter-spacing:0px;-inkscape-font-specification:sans-serif;font-family:sans-serif;font-weight:normal;font-style:normal;font-stretch:normal;font-variant:normal;">line_conductor</text>
  <path
     fill="none"
     stroke="#000000"
     d="m 313.753,363.8314 c 13.6859,-9.124 30.4385,-20.2924 45.1297,-30.0865"
     id="path71"
     inkscape:connector-curvature="0" />
  <polygon
     fill="#000000"
     stroke="#000000"
     points="354.9352,-210.2901 354.9352,-210.2901 359.0955,-213.0636 357.4314,-206.5459 363.2558,-215.8372 352.4391,-214.0344 359.0955,-213.0636 354.9352,-210.2901 "
     id="polygon73"
     transform="translate(4,544)" />
  <polygon
     fill="none"
     stroke="#000000"
     points="337,-252 198,-252 198,-216 337,-216 "
     id="polygon78"
     transform="translate(4,544)" />
  <text
     text-anchor="middle"
     x="271.5"
     y="313.70001"
     font-family="Times, serif"
     font-size="14px"
     fill="#000000"
     id="text80"
     style="letter-spacing:0px;-inkscape-font-specification:sans-serif;font-family:sans-serif;font-weight:normal;font-style:normal;font-stretch:normal;font-variant:normal;">mesh_impedance</text>
  <path
     fill="none"
     stroke="#000000"
     d="m 282.7149,363.8314 c -1.6043,-7.7004 -3.5119,-16.8571 -5.2948,-25.4148"
     id="path85"
     inkscape:connector-curvature="0" />
  <polygon
     fill="#000000"
     stroke="#000000"
     points="273.3757,-205.7969 273.3757,-205.7969 272.3559,-210.6918 277.7811,-206.7148 271.3361,-215.5867 268.9703,-204.8791 272.3559,-210.6918 273.3757,-205.7969 "
     id="polygon87"
     transform="translate(4,544)" />
  <polygon
     fill="none"
     stroke="#000000"
     points="179.5,-252 125.5,-252 125.5,-216 179.5,-216 "
     id="polygon92"
     transform="translate(4,544)" />
  <text
     text-anchor="middle"
     x="156.5"
     y="313.70001"
     font-family="Times, serif"
     font-size="14px"
     fill="#000000"
     id="text94"
     style="letter-spacing:0px;-inkscape-font-specification:sans-serif;font-family:sans-serif;font-weight:normal;font-style:normal;font-stretch:normal;font-variant:normal;">viz</text>
  <path
     fill="none"
     stroke="#000000"
     d="m 253.6955,363.8314 c -18.701,-10.3575 -42.1587,-23.3495 -61.3438,-33.9751"
     id="path99"
     inkscape:connector-curvature="0" />
  <polygon
     fill="#000000"
     stroke="#000000"
     points="188.3419,-214.149 188.3419,-214.149 183.968,-216.5716 190.5222,-218.0856 179.594,-218.9941 186.1617,-210.2125 183.968,-216.5716 188.3419,-214.149 "
     id="polygon101"
     transform="translate(4,544)" />
  <polygon
     fill="none"
     stroke="#000000"
     points="419,-324 296,-324 296,-288 419,-288 "
     id="polygon106"
     transform="translate(4,544)" />
  <text
     text-anchor="middle"
     x="361.5"
     y="241.70001"
     font-family="Times, serif"
     font-size="14px"
     fill="#000000"
     id="text108"
     style="letter-spacing:0px;-inkscape-font-specification:sans-serif;font-family:sans-serif;font-weight:normal;font-style:normal;font-stretch:normal;font-variant:normal;">line_magnetics</text>
  <path
     fill="none"
     stroke="#000000"
     d="m 355.9485,219.8314 c -2.3788,-7.7851 -5.2123,-17.0585 -7.8518,-25.6967"
     id="path113"
     inkscape:connector-curvature="0" />
  <polygon
     fill="#000000"
     stroke="#000000"
     points="344.0485,-350.0232 344.0485,-350.0232 342.5874,-354.805 348.3521,-351.3382 341.1263,-359.5867 339.7449,-348.7082 342.5874,-354.805 344.0485,-350.0232 "
     id="polygon115"
     transform="translate(4,544)" />
  <polygon
     fill="none"
     stroke="#000000"
     points="290.5,-540 236.5,-540 236.5,-504 290.5,-504 "
     id="polygon120"
     transform="translate(4,544)" />
  <text
     text-anchor="middle"
     x="267.5"
     y="25.700012"
     font-family="Times, serif"
     font-size="14px"
     fill="#000000"
     id="text122"
     style="letter-spacing:0px;-inkscape-font-specification:sans-serif;font-family:sans-serif;font-weight:normal;font-style:normal;font-stretch:normal;font-variant:normal;">utils</text>
  <path
     fill="none"
     stroke="#000000"
     d="M 321.3314,75.8314 C 312.7848,67.2848 302.4443,56.9443 293.1198,47.6198"
     id="path127"
     inkscape:connector-curvature="0" />
  <polygon
     fill="#000000"
     stroke="#000000"
     points="288.9844,-496.5156 288.9844,-496.5156 285.4488,-500.0512 292.1664,-499.6976 281.9133,-503.5867 285.8024,-493.3336 285.4488,-500.0512 288.9844,-496.5156 "
     id="polygon129"
     transform="translate(4,544)" />
  <path
     fill="none"
     stroke="#000000"
     d="M 264.2254,443.976 C 295.1379,436.3794 330.4759,423.1078 355.5,400 c 17.7917,-16.4293 27.8515,-42.3786 33.2794,-62.201"
     id="path134"
     inkscape:connector-curvature="0" />
  <polygon
     fill="#000000"
     stroke="#000000"
     points="384.7852,-206.2245 384.7852,-206.2245 385.9986,-211.075 389.1506,-205.1324 387.212,-215.9255 380.4197,-207.3166 385.9986,-211.075 384.7852,-206.2245 "
     id="polygon136"
     transform="translate(4,544)" />
  <path
     fill="none"
     stroke="#000000"
     d="m 219.9585,435.8314 c 10.962,-8.8682 24.3114,-19.6677 36.168,-29.2596"
     id="path141"
     inkscape:connector-curvature="0" />
  <polygon
     fill="#000000"
     stroke="#000000"
     points="252.2742,-137.5477 252.2742,-137.5477 256.1615,-140.6924 255.1045,-134.0491 260.0487,-143.8372 249.4439,-141.0462 256.1615,-140.6924 252.2742,-137.5477 "
     id="polygon143"
     transform="translate(4,544)" />
  <path
     fill="none"
     stroke="#000000"
     d="M 264.3252,441.3367 C 300.4122,432.8156 344.9309,419.5103 381.5,400 c 55.127,-29.4112 108,-27.518 108,-90 0,0 0,0 0,-72 0,-56.4512 -55.9702,-97.6676 -99.5321,-121.1976"
     id="path148"
     inkscape:connector-curvature="0" />
  <polygon
     fill="#000000"
     stroke="#000000"
     points="385.7459,-427.3137 385.7459,-427.3137 381.3156,-429.6316 387.8319,-431.3011 376.8852,-431.9494 383.6599,-423.3264 381.3156,-429.6316 385.7459,-427.3137 "
     id="polygon150"
     transform="translate(4,544)" />
  <path
     fill="none"
     stroke="#000000"
     d="m 198.2751,435.6845 c 1.486,-18.983 5.7921,-48.9974 18.2249,-71.6845 5.8692,-10.71 14.5439,-20.6469 23.2778,-29.0007"
     id="path155"
     inkscape:connector-curvature="0" />
  <polygon
     fill="#000000"
     stroke="#000000"
     points="235.9924,-209.1953 235.9924,-209.1953 239.6958,-212.5547 239.0158,-205.8623 243.3993,-215.914 232.9691,-212.5284 239.6958,-212.5547 235.9924,-209.1953 "
     id="polygon157"
     transform="translate(4,544)" />
  <polygon
     fill="none"
     stroke="#000000"
     points="163,-324 28,-324 28,-288 163,-288 "
     id="polygon162"
     transform="translate(4,544)" />
  <text
     text-anchor="middle"
     x="99.5"
     y="241.70001"
     font-family="Times, serif"
     font-size="14px"
     fill="#000000"
     id="text164"
     style="letter-spacing:0px;-inkscape-font-specification:sans-serif;font-family:sans-serif;font-weight:normal;font-style:normal;font-stretch:normal;font-variant:normal;">mesh_magnetics</text>
  <path
     fill="none"
     stroke="#000000"
     d="M 183.7693,435.7958 C 166.5686,412.153 137.3162,369.0392 120.5,328 112.3124,308.0185 106.9295,284.1717 103.6653,266.0464"
     id="path169"
     inkscape:connector-curvature="0" />
  <polygon
     fill="#000000"
     stroke="#000000"
     points="99.6521,-278.0322 99.6521,-278.0322 98.8175,-282.962 104.089,-278.7833 97.983,-287.8919 95.2152,-277.2811 98.8175,-282.962 99.6521,-278.0322 "
     id="polygon171"
     transform="translate(4,544)" />
  <polygon
     fill="none"
     stroke="#000000"
     points="591,-396 514,-396 514,-360 591,-360 "
     id="polygon176"
     transform="translate(4,544)" />
  <text
     text-anchor="middle"
     x="556.5"
     y="169.70001"
     font-family="Times, serif"
     font-size="14px"
     fill="#000000"
     id="text178"
     style="letter-spacing:0px;-inkscape-font-specification:sans-serif;font-family:sans-serif;font-weight:normal;font-style:normal;font-stretch:normal;font-variant:normal;">sphtools</text>
  <path
     fill="none"
     stroke="#000000"
     d="M 264.2159,450.6885 C 343.695,445.3424 469.9648,431.9608 503.5,400 560.5471,345.631 562.222,243.8202 559.2109,194.3837"
     id="path183"
     inkscape:connector-curvature="0" />
  <polygon
     fill="#000000"
     stroke="#000000"
     points="555.1893,-349.917 555.1893,-349.917 554.8293,-354.904 559.6776,-350.241 554.4692,-359.891 550.701,-349.593 554.8293,-354.904 555.1893,-349.917 "
     id="polygon185"
     transform="translate(4,544)" />
  <polygon
     fill="none"
     stroke="#000000"
     points="89,-180 12,-180 12,-144 89,-144 "
     id="polygon190"
     transform="translate(4,544)" />
  <text
     text-anchor="middle"
     x="54.5"
     y="385.70001"
     font-family="Times, serif"
     font-size="14px"
     fill="#000000"
     id="text192"
     style="letter-spacing:0px;-inkscape-font-specification:sans-serif;font-family:sans-serif;font-weight:normal;font-style:normal;font-stretch:normal;font-variant:normal;">suhtools</text>
  <path
     fill="none"
     stroke="#000000"
     d="M 161.4151,435.8314 C 142.7011,426.4089 119.6568,414.8062 99.76,404.7883"
     id="path197"
     inkscape:connector-curvature="0" />
  <polygon
     fill="#000000"
     stroke="#000000"
     points="95.5051,-139.34 95.5051,-139.34 91.0393,-141.5886 97.5289,-143.3593 86.5734,-143.8372 93.4814,-135.3207 91.0393,-141.5886 95.5051,-139.34 "
     id="polygon199"
     transform="translate(4,544)" />
  <path
     fill="none"
     stroke="#000000"
     d="m 192.3073,435.7623 c -7.0239,-24.6695 -19.6181,-68.9025 -27.8427,-97.7892"
     id="path204"
     inkscape:connector-curvature="0" />
  <polygon
     fill="#000000"
     stroke="#000000"
     points="160.389,-206.2926 160.389,-206.2926 159.0197,-211.1015 164.717,-207.5249 157.6505,-215.9104 156.061,-205.0603 159.0197,-211.1015 160.389,-206.2926 "
     id="polygon206"
     transform="translate(4,544)" />
  <path
     fill="none"
     stroke="#000000"
     d="M 272.5418,291.8257 C 274.2453,272.9578 278.7266,243.0362 290.5,220 c 5.2931,-10.3566 13.0981,-20.2346 20.9303,-28.6437"
     id="path211"
     inkscape:connector-curvature="0" />
  <polygon
     fill="#000000"
     stroke="#000000"
     points="307.5634,-352.7797 307.5634,-352.7797 311.0615,-356.3524 310.7788,-349.6315 314.5595,-359.925 304.348,-355.928 311.0615,-356.3524 307.5634,-352.7797 "
     id="polygon213"
     transform="translate(4,544)" />
  <path
     fill="none"
     stroke="#000000"
     d="M 269.6281,291.7886 C 267.2487,260.4829 266.0209,195.2758 290.5,148 c 5.3479,-10.3283 13.1684,-20.1984 20.998,-28.6089"
     id="path218"
     inkscape:connector-curvature="0" />
  <polygon
     fill="#000000"
     stroke="#000000"
     points="307.6294,-424.7433 307.6294,-424.7433 311.1248,-428.3186 310.8471,-421.5975 314.6202,-431.8938 304.4117,-427.8892 311.1248,-428.3186 307.6294,-424.7433 "
     id="polygon220"
     transform="translate(4,544)" />
  <path
     fill="none"
     stroke="#000000"
     d="m 228.0971,291.8314 c -23.1062,-9.6724 -51.7009,-21.6423 -76.0548,-31.837"
     id="path225"
     inkscape:connector-curvature="0" />
  <polygon
     fill="#000000"
     stroke="#000000"
     points="147.8152,-284.1006 147.8152,-284.1006 143.203,-286.0313 149.5528,-288.2516 138.5908,-287.962 146.0775,-279.9496 143.203,-286.0313 147.8152,-284.1006 "
     id="polygon227"
     transform="translate(4,544)" />
  <path
     fill="none"
     stroke="#000000"
     d="M 268.5115,291.563 C 266.9749,281.1537 265.2672,267.8866 264.5,256 259.7233,181.9946 263.2835,94.5602 265.7203,50.4703"
     id="path232"
     inkscape:connector-curvature="0" />
  <polygon
     fill="#000000"
     stroke="#000000"
     points="261.735,-493.7871 261.735,-493.7871 262.0225,-498.7789 266.2276,-493.5284 262.3099,-503.7706 257.2425,-494.0458 262.0225,-498.7789 261.735,-493.7871 "
     id="polygon234"
     transform="translate(4,544)" />
  <path
     fill="none"
     stroke="#000000"
     d="m 159.7523,219.9243 c 40.0233,-12.007 91.9515,-27.5854 129.6954,-38.9086"
     id="path239"
     inkscape:connector-curvature="0" />
  <polygon
     fill="#000000"
     stroke="#000000"
     points="285.6296,-363.0388 285.6296,-363.0388 290.4187,-364.4756 286.9227,-358.7286 295.2079,-365.9124 284.3365,-367.349 290.4187,-364.4756 285.6296,-363.0388 "
     id="polygon241"
     transform="translate(4,544)" />
  <path
     fill="none"
     stroke="#000000"
     d="M 129.8962,219.7623 C 173.2661,193.7404 252.9153,145.9508 300.5565,117.3661"
     id="path246"
     inkscape:connector-curvature="0" />
  <polygon
     fill="#000000"
     stroke="#000000"
     points="296.7757,-426.7654 296.7757,-426.7654 301.0632,-429.3379 299.0909,-422.9067 305.3506,-431.9104 294.4604,-430.6241 301.0632,-429.3379 296.7757,-426.7654 "
     id="polygon248"
     transform="translate(4,544)" />
  <path
     fill="none"
     stroke="#000000"
     d="M 105.077,219.8202 C 115.6573,187.6992 141.2501,120.1394 181.5,76 195.4319,60.7219 214.6485,48.1088 231.3835,38.9255"
     id="path253"
     inkscape:connector-curvature="0" />
  <polygon
     fill="#000000"
     stroke="#000000"
     points="227.5315,-505.1525 227.5315,-505.1525 231.9539,-507.4856 229.6313,-501.1724 236.3762,-509.8186 225.4318,-509.1326 231.9539,-507.4856 227.5315,-505.1525 "
     id="polygon255"
     transform="translate(4,544)" />
  <path
     fill="none"
     stroke="#000000"
     d="M 517.7268,152.7853 C 512.9377,151.1668 508.1079,149.5411 503.5,148 470.9219,137.1047 434.6471,125.1429 404.5136,115.2528"
     id="path260"
     inkscape:connector-curvature="0" />
  <polygon
     fill="#000000"
     stroke="#000000"
     points="400.4601,-428.7647 400.4601,-428.7647 395.7092,-430.3231 401.8627,-433.0405 390.9583,-431.8815 399.0576,-424.4888 395.7092,-430.3231 400.4601,-428.7647 "
     id="polygon262"
     transform="translate(4,544)" />
  <path
     fill="none"
     stroke="#000000"
     d="M 529.8438,147.9357 C 500.6364,128.615 452.0033,97.8142 407.5,76 373.4972,59.3328 332.9708,44.183 304.2923,34.2011"
     id="path267"
     inkscape:connector-curvature="0" />
  <polygon
     fill="#000000"
     stroke="#000000"
     points="300.1288,-509.8551 300.1288,-509.8551 295.4007,-511.4816 301.5926,-514.1104 290.6726,-513.1081 298.6649,-505.5998 295.4007,-511.4816 300.1288,-509.8551 "
     id="polygon269"
     transform="translate(4,544)" />
  <path
     fill="none"
     stroke="#000000"
     d="m 60.1993,363.7623 c 7.7092,-24.6695 21.532,-68.9025 30.5591,-97.7892"
     id="path274"
     inkscape:connector-curvature="0" />
  <polygon
     fill="#000000"
     stroke="#000000"
     points="86.8642,-278.3656 86.8642,-278.3656 88.3556,-283.138 91.1593,-277.0233 89.847,-287.9104 82.569,-279.7078 88.3556,-283.138 86.8642,-278.3656 "
     id="polygon276"
     transform="translate(4,544)" />
  <path
     fill="none"
     stroke="#000000"
     d="m 80.2389,363.8314 c 12.8048,-9.0387 28.452,-20.0838 42.233,-29.8116"
     id="path281"
     inkscape:connector-curvature="0" />
  <polygon
     fill="#000000"
     stroke="#000000"
     points="118.5996,-210.0703 118.5996,-210.0703 122.6845,-212.9537 121.1947,-206.3939 126.7693,-215.8372 116.0045,-213.7467 122.6845,-212.9537 118.5996,-210.0703 "
     id="polygon283"
     transform="translate(4,544)" />
  <polygon
     fill="none"
     stroke="#000000"
     points="117,-36 0,-36 0,0 117,0 "
     id="polygon288"
     transform="translate(4,544)" />
  <text
     text-anchor="middle"
     x="62.5"
     y="529.70001"
     font-family="Times, serif"
     font-size="14px"
     fill="#000000"
     id="text290"
     style="letter-spacing:0px;-inkscape-font-specification:sans-serif;font-family:sans-serif;font-weight:normal;font-style:normal;font-stretch:normal;font-variant:normal;">thermal_noise</text>
  <path
     fill="none"
     stroke="#000000"
     d="m 96.5662,507.8314 c 17.5871,-9.3798 39.2254,-20.9202 57.9506,-30.907"
     id="path295"
     inkscape:connector-curvature="0" />
  <polygon
     fill="#000000"
     stroke="#000000"
     points="150.6212,-67.1312 150.6212,-67.1312 155.0329,-69.4842 152.7388,-63.1606 159.4447,-71.8372 148.5035,-71.1018 155.0329,-69.4842 150.6212,-67.1312 "
     id="polygon297"
     transform="translate(4,544)" />
  <path
     fill="none"
     stroke="#000000"
     d="M 61.4868,507.7623 C 60.1223,483.201 57.6804,439.2474 56.0752,410.3541"
     id="path302"
     inkscape:connector-curvature="0" />
  <polygon
     fill="#000000"
     stroke="#000000"
     points="52.0598,-133.9258 52.0598,-133.9258 51.7824,-138.9181 56.5528,-134.1754 51.505,-143.9104 47.5667,-133.6761 51.7824,-138.9181 52.0598,-133.9258 "
     id="polygon304"
     transform="translate(4,544)" />
  <polygon
     transform="matrix(-0.99800552,0.06312664,0.06312664,0.99800552,722.33847,594.19199)"
     id="polygon916"
     points="342.5874,-354.805 344.0485,-350.0232 342.5874,-354.805 348.3521,-351.3382 341.1263,-359.5867 339.7449,-348.7082 "
     stroke="#000000"
     fill="#000000" />
  <path
     sodipodi:nodetypes="csc"
     inkscape:connector-curvature="0"
     id="path918"
     d="m 309.87102,363.79694 c 23.44416,-16.67104 28.92379,-14.67788 35.44156,-36.93477 9.89306,-33.78286 8.24436,-38.95837 11.62803,-60.59786"
     stroke="#000000"
     fill="none" />
</svg>
