<?xml version="1.0" encoding="UTF-8" standalone="no"?>
<!DOCTYPE svg PUBLIC "-//W3C//DTD SVG 1.1//EN"
 "http://www.w3.org/Graphics/SVG/1.1/DTD/svg11.dtd">
<!-- Generated by graphviz version 2.40.1 (0)
 -->
<!-- Title: packages Pages: 1 -->
<svg width="525pt" height="548pt"
 viewBox="0.00 0.00 525.29 548.00" xmlns="http://www.w3.org/2000/svg" xmlns:xlink="http://www.w3.org/1999/xlink">
<g id="graph0" class="graph" transform="scale(1 1) rotate(0) translate(4 544)">
<title>packages</title>
<polygon fill="#ffffff" stroke="transparent" points="-4,4 -4,-544 521.2901,-544 521.2901,4 -4,4"/>
<!-- 0 -->
<g id="node1" class="node">
<title>0</title>
<polygon fill="none" stroke="#000000" points="330,-36 220,-36 220,0 330,0 330,-36"/>
<text text-anchor="middle" x="275" y="-14.3" font-family="Times,serif" font-size="14.00" fill="#000000">coil_optimize</text>
</g>
<!-- 6 -->
<g id="node7" class="node">
<title>6</title>
<polygon fill="none" stroke="#000000" points="341.5,-108 208.5,-108 208.5,-72 341.5,-72 341.5,-108"/>
<text text-anchor="middle" x="275" y="-86.3" font-family="Times,serif" font-size="14.00" fill="#000000">mesh_conductor</text>
</g>
<!-- 0&#45;&gt;6 -->
<g id="edge1" class="edge">
<title>0&#45;&gt;6</title>
<path fill="none" stroke="#000000" d="M275,-36.1686C275,-43.869 275,-53.0257 275,-61.5834"/>
<polygon fill="#000000" stroke="#000000" points="275,-71.5867 270.5001,-61.5867 275,-66.5867 275.0001,-61.5867 275.0001,-61.5867 275.0001,-61.5867 275,-66.5867 279.5001,-61.5868 275,-71.5867 275,-71.5867"/>
</g>
<!-- 1 -->
<g id="node2" class="node">
<title>1</title>
<polygon fill="none" stroke="#000000" points="99.5,-252 28.5,-252 28.5,-216 99.5,-216 99.5,-252"/>
<text text-anchor="middle" x="64" y="-230.3" font-family="Times,serif" font-size="14.00" fill="#000000">contour</text>
</g>
<!-- 5 -->
<g id="node6" class="node">
<title>5</title>
<polygon fill="none" stroke="#000000" points="303.5,-468 184.5,-468 184.5,-432 303.5,-432 303.5,-468"/>
<text text-anchor="middle" x="244" y="-446.3" font-family="Times,serif" font-size="14.00" fill="#000000">mesh_calculus</text>
</g>
<!-- 1&#45;&gt;5 -->
<g id="edge2" class="edge">
<title>1&#45;&gt;5</title>
<path fill="none" stroke="#000000" d="M75.0318,-252.0588C94.4394,-283.1342 136.8368,-348.0035 181,-396 190.5606,-406.3904 202.0355,-416.7404 212.5573,-425.5577"/>
<polygon fill="#000000" stroke="#000000" points="220.3701,-431.9769 209.7868,-429.1055 216.5069,-428.8028 212.6436,-425.6286 212.6436,-425.6286 212.6436,-425.6286 216.5069,-428.8028 215.5003,-422.1516 220.3701,-431.9769 220.3701,-431.9769"/>
</g>
<!-- 2 -->
<g id="node3" class="node">
<title>2</title>
<polygon fill="none" stroke="#000000" points="284,-396 204,-396 204,-360 284,-360 284,-396"/>
<text text-anchor="middle" x="244" y="-374.3" font-family="Times,serif" font-size="14.00" fill="#000000">integrals</text>
</g>
<!-- 2&#45;&gt;5 -->
<g id="edge3" class="edge">
<title>2&#45;&gt;5</title>
<path fill="none" stroke="#000000" d="M244,-396.1686C244,-403.869 244,-413.0257 244,-421.5834"/>
<polygon fill="#000000" stroke="#000000" points="244,-431.5867 239.5001,-421.5867 244,-426.5867 244.0001,-421.5867 244.0001,-421.5867 244.0001,-421.5867 244,-426.5867 248.5001,-421.5868 244,-431.5867 244,-431.5867"/>
</g>
<!-- 3 -->
<g id="node4" class="node">
<title>3</title>
<polygon fill="none" stroke="#000000" points="291.5,-180 170.5,-180 170.5,-144 291.5,-144 291.5,-180"/>
<text text-anchor="middle" x="231" y="-158.3" font-family="Times,serif" font-size="14.00" fill="#000000">line_conductor</text>
</g>
<!-- 3&#45;&gt;1 -->
<g id="edge4" class="edge">
<title>3&#45;&gt;1</title>
<path fill="none" stroke="#000000" d="M188.8588,-180.1686C164.4401,-190.6965 133.708,-203.9462 108.8439,-214.6661"/>
<polygon fill="#000000" stroke="#000000" points="99.6272,-218.6397 107.0285,-210.5483 104.2187,-216.6602 108.8102,-214.6806 108.8102,-214.6806 108.8102,-214.6806 104.2187,-216.6602 110.5918,-218.8129 99.6272,-218.6397 99.6272,-218.6397"/>
</g>
<!-- 4 -->
<g id="node5" class="node">
<title>4</title>
<polygon fill="none" stroke="#000000" points="335.5,-324 212.5,-324 212.5,-288 335.5,-288 335.5,-324"/>
<text text-anchor="middle" x="274" y="-302.3" font-family="Times,serif" font-size="14.00" fill="#000000">line_magnetics</text>
</g>
<!-- 3&#45;&gt;4 -->
<g id="edge5" class="edge">
<title>3&#45;&gt;4</title>
<path fill="none" stroke="#000000" d="M245.5861,-180.3899C252.6826,-190.3537 260.6101,-203.217 265,-216 271.8321,-235.8947 273.9785,-259.6119 274.4722,-277.7037"/>
<polygon fill="#000000" stroke="#000000" points="274.5941,-287.8952 269.9747,-277.9498 274.5342,-282.8956 274.4744,-277.8959 274.4744,-277.8959 274.4744,-277.8959 274.5342,-282.8956 278.974,-277.842 274.5941,-287.8952 274.5941,-287.8952"/>
</g>
<!-- 7 -->
<g id="node8" class="node">
<title>7</title>
<polygon fill="none" stroke="#000000" points="256.5,-252 117.5,-252 117.5,-216 256.5,-216 256.5,-252"/>
<text text-anchor="middle" x="187" y="-230.3" font-family="Times,serif" font-size="14.00" fill="#000000">mesh_impedance</text>
</g>
<!-- 3&#45;&gt;7 -->
<g id="edge6" class="edge">
<title>3&#45;&gt;7</title>
<path fill="none" stroke="#000000" d="M219.8969,-180.1686C214.9326,-188.2921 208.9778,-198.0363 203.5072,-206.9882"/>
<polygon fill="#000000" stroke="#000000" points="198.2526,-215.5867 199.6273,-204.7074 200.8598,-211.3203 203.4671,-207.0539 203.4671,-207.0539 203.4671,-207.0539 200.8598,-211.3203 207.3069,-209.4004 198.2526,-215.5867 198.2526,-215.5867"/>
</g>
<!-- 12 -->
<g id="node13" class="node">
<title>12</title>
<polygon fill="none" stroke="#000000" points="367,-252 313,-252 313,-216 367,-216 367,-252"/>
<text text-anchor="middle" x="340" y="-230.3" font-family="Times,serif" font-size="14.00" fill="#000000">viz</text>
</g>
<!-- 3&#45;&gt;12 -->
<g id="edge7" class="edge">
<title>3&#45;&gt;12</title>
<path fill="none" stroke="#000000" d="M258.5053,-180.1686C272.4234,-189.3623 289.4839,-200.6316 304.3921,-210.4792"/>
<polygon fill="#000000" stroke="#000000" points="312.8811,-216.0866 302.0568,-214.3297 308.7091,-213.3308 304.5371,-210.5749 304.5371,-210.5749 304.5371,-210.5749 308.7091,-213.3308 307.0173,-206.8201 312.8811,-216.0866 312.8811,-216.0866"/>
</g>
<!-- 4&#45;&gt;2 -->
<g id="edge8" class="edge">
<title>4&#45;&gt;2</title>
<path fill="none" stroke="#000000" d="M266.4297,-324.1686C263.1507,-332.0383 259.238,-341.4288 255.6055,-350.1467"/>
<polygon fill="#000000" stroke="#000000" points="251.6722,-359.5867 251.3646,-348.6252 253.5953,-354.9713 255.5184,-350.356 255.5184,-350.356 255.5184,-350.356 253.5953,-354.9713 259.6723,-352.0868 251.6722,-359.5867 251.6722,-359.5867"/>
</g>
<!-- 11 -->
<g id="node12" class="node">
<title>11</title>
<polygon fill="none" stroke="#000000" points="324,-540 270,-540 270,-504 324,-504 324,-540"/>
<text text-anchor="middle" x="297" y="-518.3" font-family="Times,serif" font-size="14.00" fill="#000000">utils</text>
</g>
<!-- 5&#45;&gt;11 -->
<g id="edge9" class="edge">
<title>5&#45;&gt;11</title>
<path fill="none" stroke="#000000" d="M257.3741,-468.1686C263.4162,-476.3768 270.6763,-486.2394 277.3221,-495.2677"/>
<polygon fill="#000000" stroke="#000000" points="283.4458,-503.5867 273.8936,-498.201 280.4817,-499.56 277.5176,-495.5333 277.5176,-495.5333 277.5176,-495.5333 280.4817,-499.56 281.1416,-492.8656 283.4458,-503.5867 283.4458,-503.5867"/>
</g>
<!-- 6&#45;&gt;1 -->
<g id="edge10" class="edge">
<title>6&#45;&gt;1</title>
<path fill="none" stroke="#000000" d="M222.115,-108.0521C199.4755,-117.056 173.3855,-129.2068 152,-144 126.0528,-161.9487 101.3833,-188.2776 84.8029,-207.8257"/>
<polygon fill="#000000" stroke="#000000" points="78.2122,-215.7442 81.1508,-205.1793 81.4109,-211.9011 84.6095,-208.0581 84.6095,-208.0581 84.6095,-208.0581 81.4109,-211.9011 88.0682,-210.9369 78.2122,-215.7442 78.2122,-215.7442"/>
</g>
<!-- 6&#45;&gt;3 -->
<g id="edge11" class="edge">
<title>6&#45;&gt;3</title>
<path fill="none" stroke="#000000" d="M263.8969,-108.1686C258.9326,-116.2921 252.9778,-126.0363 247.5072,-134.9882"/>
<polygon fill="#000000" stroke="#000000" points="242.2526,-143.5867 243.6273,-132.7074 244.8598,-139.3203 247.4671,-135.0539 247.4671,-135.0539 247.4671,-135.0539 244.8598,-139.3203 251.3069,-137.4004 242.2526,-143.5867 242.2526,-143.5867"/>
</g>
<!-- 6&#45;&gt;5 -->
<g id="edge12" class="edge">
<title>6&#45;&gt;5</title>
<path fill="none" stroke="#000000" d="M208.4302,-95.9951C127.0432,-107.4023 0,-140.2271 0,-234 0,-234 0,-234 0,-306 0,-387.5076 102.232,-423.8308 174.3486,-439.314"/>
<polygon fill="#000000" stroke="#000000" points="184.3109,-441.363 173.6093,-443.7561 179.4134,-440.3557 174.5159,-439.3484 174.5159,-439.3484 174.5159,-439.3484 179.4134,-440.3557 175.4225,-434.9406 184.3109,-441.363 184.3109,-441.363"/>
</g>
<!-- 6&#45;&gt;7 -->
<g id="edge13" class="edge">
<title>6&#45;&gt;7</title>
<path fill="none" stroke="#000000" d="M208.4499,-106.8667C189.9141,-114.9574 171.8911,-126.7898 161,-144 148.8172,-163.2512 157.7514,-188.3812 168.3405,-207.1926"/>
<polygon fill="#000000" stroke="#000000" points="173.5865,-215.8662 164.5607,-209.6384 170.9988,-211.5879 168.4112,-207.3095 168.4112,-207.3095 168.4112,-207.3095 170.9988,-211.5879 172.2617,-204.9806 173.5865,-215.8662 173.5865,-215.8662"/>
</g>
<!-- 8 -->
<g id="node9" class="node">
<title>8</title>
<polygon fill="none" stroke="#000000" points="488.5,-324 353.5,-324 353.5,-288 488.5,-288 488.5,-324"/>
<text text-anchor="middle" x="421" y="-302.3" font-family="Times,serif" font-size="14.00" fill="#000000">mesh_magnetics</text>
</g>
<!-- 6&#45;&gt;8 -->
<g id="edge14" class="edge">
<title>6&#45;&gt;8</title>
<path fill="none" stroke="#000000" d="M341.5742,-104.2314C380.2438,-113.9964 423.5447,-128.0437 435,-144 463.47,-183.6564 447.0883,-243.6586 433.4591,-278.4235"/>
<polygon fill="#000000" stroke="#000000" points="429.5492,-287.9371 429.1883,-276.9772 431.4499,-283.3125 433.3505,-278.6878 433.3505,-278.6878 433.3505,-278.6878 431.4499,-283.3125 437.5127,-280.3984 429.5492,-287.9371 429.5492,-287.9371"/>
</g>
<!-- 9 -->
<g id="node10" class="node">
<title>9</title>
<polygon fill="none" stroke="#000000" points="455.5,-396 378.5,-396 378.5,-360 455.5,-360 455.5,-396"/>
<text text-anchor="middle" x="417" y="-374.3" font-family="Times,serif" font-size="14.00" fill="#000000">sphtools</text>
</g>
<!-- 6&#45;&gt;9 -->
<g id="edge15" class="edge">
<title>6&#45;&gt;9</title>
<path fill="none" stroke="#000000" d="M341.9677,-103.1543C386.1671,-113.1012 438.8036,-127.783 455,-144 513.1232,-202.1973 536.8108,-251.4813 498,-324 490.5422,-337.935 477.7244,-348.895 464.4576,-357.194"/>
<polygon fill="#000000" stroke="#000000" points="455.7264,-362.2679 462.1115,-353.3526 460.0494,-359.7556 464.3725,-357.2434 464.3725,-357.2434 464.3725,-357.2434 460.0494,-359.7556 466.6335,-361.1341 455.7264,-362.2679 455.7264,-362.2679"/>
</g>
<!-- 10 -->
<g id="node11" class="node">
<title>10</title>
<polygon fill="none" stroke="#000000" points="425.5,-180 348.5,-180 348.5,-144 425.5,-144 425.5,-180"/>
<text text-anchor="middle" x="387" y="-158.3" font-family="Times,serif" font-size="14.00" fill="#000000">suhtools</text>
</g>
<!-- 6&#45;&gt;10 -->
<g id="edge16" class="edge">
<title>6&#45;&gt;10</title>
<path fill="none" stroke="#000000" d="M303.2623,-108.1686C317.4552,-117.2926 334.8282,-128.461 350.0636,-138.2551"/>
<polygon fill="#000000" stroke="#000000" points="358.7467,-143.8372 347.9015,-142.2149 354.5408,-141.1334 350.3349,-138.4296 350.3349,-138.4296 350.3349,-138.4296 354.5408,-141.1334 352.7683,-134.6442 358.7467,-143.8372 358.7467,-143.8372"/>
</g>
<!-- 6&#45;&gt;12 -->
<g id="edge17" class="edge">
<title>6&#45;&gt;12</title>
<path fill="none" stroke="#000000" d="M283.6325,-108.4622C288.4819,-118.8792 294.6221,-132.1459 300,-144 309.4771,-164.8898 320.0063,-188.6014 327.8823,-206.4405"/>
<polygon fill="#000000" stroke="#000000" points="331.9613,-215.6916 323.8093,-208.3571 329.9441,-211.1166 327.9268,-206.5416 327.9268,-206.5416 327.9268,-206.5416 329.9441,-211.1166 332.0444,-204.7261 331.9613,-215.6916 331.9613,-215.6916"/>
</g>
<!-- 7&#45;&gt;2 -->
<g id="edge18" class="edge">
<title>7&#45;&gt;2</title>
<path fill="none" stroke="#000000" d="M187.7413,-252.3135C189.0662,-271.0314 192.7527,-300.5942 203,-324 207.3196,-333.8664 213.7891,-343.5783 220.3199,-351.9858"/>
<polygon fill="#000000" stroke="#000000" points="226.7937,-359.916 216.9838,-355.0152 223.6317,-356.0427 220.4697,-352.1694 220.4697,-352.1694 220.4697,-352.1694 223.6317,-356.0427 223.9557,-349.3237 226.7937,-359.916 226.7937,-359.916"/>
</g>
<!-- 7&#45;&gt;5 -->
<g id="edge19" class="edge">
<title>7&#45;&gt;5</title>
<path fill="none" stroke="#000000" d="M183.8911,-252.1886C179.4451,-283.1829 173.9532,-347.5776 195,-396 199.559,-406.489 207.0028,-416.3 214.7275,-424.6052"/>
<polygon fill="#000000" stroke="#000000" points="221.8258,-431.7854 211.5952,-427.8376 218.3106,-428.2297 214.7954,-424.6739 214.7954,-424.6739 214.7954,-424.6739 218.3106,-428.2297 217.9956,-421.5102 221.8258,-431.7854 221.8258,-431.7854"/>
</g>
<!-- 7&#45;&gt;8 -->
<g id="edge20" class="edge">
<title>7&#45;&gt;8</title>
<path fill="none" stroke="#000000" d="M245.746,-252.0757C278.1525,-262.0469 318.5639,-274.4812 352.412,-284.896"/>
<polygon fill="#000000" stroke="#000000" points="362.2298,-287.9169 351.3486,-289.2769 357.4509,-286.4464 352.672,-284.9759 352.672,-284.9759 352.672,-284.9759 357.4509,-286.4464 353.9954,-280.6749 362.2298,-287.9169 362.2298,-287.9169"/>
</g>
<!-- 7&#45;&gt;11 -->
<g id="edge21" class="edge">
<title>7&#45;&gt;11</title>
<path fill="none" stroke="#000000" d="M179.3995,-252.273C163.2309,-294.302 130.3938,-399.4758 175,-468 193.6259,-496.6131 231.2482,-510.1787 259.8168,-516.539"/>
<polygon fill="#000000" stroke="#000000" points="269.8805,-518.5708 259.1877,-521.0027 264.9794,-517.5813 260.0783,-516.5917 260.0783,-516.5917 260.0783,-516.5917 264.9794,-517.5813 260.9689,-512.1807 269.8805,-518.5708 269.8805,-518.5708"/>
</g>
<!-- 8&#45;&gt;2 -->
<g id="edge22" class="edge">
<title>8&#45;&gt;2</title>
<path fill="none" stroke="#000000" d="M376.3354,-324.1686C351.0701,-334.446 319.4281,-347.3174 293.4203,-357.8968"/>
<polygon fill="#000000" stroke="#000000" points="284.1156,-361.6818 291.683,-353.7454 288.7471,-359.7978 293.3786,-357.9137 293.3786,-357.9137 293.3786,-357.9137 288.7471,-359.7978 295.0742,-362.0821 284.1156,-361.6818 284.1156,-361.6818"/>
</g>
<!-- 8&#45;&gt;5 -->
<g id="edge23" class="edge">
<title>8&#45;&gt;5</title>
<path fill="none" stroke="#000000" d="M389.2537,-324.0074C372.804,-333.8666 352.7159,-346.7516 336,-360 310.9134,-379.8827 285.0928,-405.6974 267.2162,-424.5781"/>
<polygon fill="#000000" stroke="#000000" points="260.3023,-431.9536 263.8583,-421.5803 263.7218,-428.3057 267.1414,-424.6579 267.1414,-424.6579 267.1414,-424.6579 263.7218,-428.3057 270.4245,-427.7355 260.3023,-431.9536 260.3023,-431.9536"/>
</g>
<!-- 8&#45;&gt;11 -->
<g id="edge24" class="edge">
<title>8&#45;&gt;11</title>
<path fill="none" stroke="#000000" d="M400.4603,-324.0694C390.0908,-333.9456 377.8655,-346.8271 369,-360 339.7223,-403.5029 317.5241,-460.8552 305.9501,-494.354"/>
<polygon fill="#000000" stroke="#000000" points="302.7031,-503.9426 301.6483,-493.0276 304.3068,-499.2067 305.9105,-494.4709 305.9105,-494.4709 305.9105,-494.4709 304.3068,-499.2067 310.1728,-495.9142 302.7031,-503.9426 302.7031,-503.9426"/>
</g>
<!-- 9&#45;&gt;5 -->
<g id="edge25" class="edge">
<title>9&#45;&gt;5</title>
<path fill="none" stroke="#000000" d="M378.1754,-394.1582C354.1309,-404.1652 322.9389,-417.1468 296.6815,-428.0748"/>
<polygon fill="#000000" stroke="#000000" points="287.2533,-431.9986 294.7566,-424.0016 291.8695,-430.0774 296.4857,-428.1562 296.4857,-428.1562 296.4857,-428.1562 291.8695,-430.0774 298.2148,-432.3107 287.2533,-431.9986 287.2533,-431.9986"/>
</g>
<!-- 9&#45;&gt;11 -->
<g id="edge26" class="edge">
<title>9&#45;&gt;11</title>
<path fill="none" stroke="#000000" d="M408.7466,-396.1462C399.5225,-415.2598 383.318,-445.63 364,-468 354.6628,-478.8124 342.9527,-489.0817 331.9453,-497.705"/>
<polygon fill="#000000" stroke="#000000" points="323.7158,-503.9602 328.954,-494.3263 327.6964,-500.9345 331.6771,-497.9089 331.6771,-497.9089 331.6771,-497.9089 327.6964,-500.9345 334.4002,-501.4914 323.7158,-503.9602 323.7158,-503.9602"/>
</g>
<!-- 10&#45;&gt;8 -->
<g id="edge27" class="edge">
<title>10&#45;&gt;8</title>
<path fill="none" stroke="#000000" d="M391.3061,-180.2377C397.1309,-204.9072 407.5748,-249.1402 414.3952,-278.0269"/>
<polygon fill="#000000" stroke="#000000" points="416.7288,-287.9104 410.0513,-279.2121 415.5798,-283.0442 414.4308,-278.178 414.4308,-278.178 414.4308,-278.178 415.5798,-283.0442 418.8104,-277.1439 416.7288,-287.9104 416.7288,-287.9104"/>
</g>
<!-- 10&#45;&gt;12 -->
<g id="edge28" class="edge">
<title>10&#45;&gt;12</title>
<path fill="none" stroke="#000000" d="M375.1399,-180.1686C369.8371,-188.2921 363.4763,-198.0363 357.6327,-206.9882"/>
<polygon fill="#000000" stroke="#000000" points="352.0198,-215.5867 353.7178,-204.7531 354.7529,-211.3998 357.486,-207.2129 357.486,-207.2129 357.486,-207.2129 354.7529,-211.3998 361.2543,-209.6727 352.0198,-215.5867 352.0198,-215.5867"/>
</g>
</g>
</svg>
