<?xml version="1.0" encoding="UTF-8" standalone="no"?>
<!DOCTYPE svg PUBLIC "-//W3C//DTD SVG 1.1//EN"
 "http://www.w3.org/Graphics/SVG/1.1/DTD/svg11.dtd">
<!-- Generated by graphviz version 2.40.1 (0)
 -->
<!-- Title: packages Pages: 1 -->
<svg width="599pt" height="548pt"
 viewBox="0.00 0.00 599.00 548.00" xmlns="http://www.w3.org/2000/svg" xmlns:xlink="http://www.w3.org/1999/xlink">
<g id="graph0" class="graph" transform="scale(1 1) rotate(0) translate(4 544)">
<title>packages</title>
<polygon fill="#ffffff" stroke="transparent" points="-4,4 -4,-544 595,-544 595,4 -4,4"/>
<!-- 0 -->
<g id="node1" class="node">
<title>0</title>
<polygon fill="none" stroke="#000000" points="248.5,-36 138.5,-36 138.5,0 248.5,0 248.5,-36"/>
<text text-anchor="middle" x="193.5" y="-14.3" font-family="Times,serif" font-size="14.00" fill="#000000">coil_optimize</text>
</g>
<!-- 6 -->
<g id="node7" class="node">
<title>6</title>
<polygon fill="none" stroke="#000000" points="260,-108 127,-108 127,-72 260,-72 260,-108"/>
<text text-anchor="middle" x="193.5" y="-86.3" font-family="Times,serif" font-size="14.00" fill="#000000">mesh_conductor</text>
</g>
<!-- 0&#45;&gt;6 -->
<g id="edge1" class="edge">
<title>0&#45;&gt;6</title>
<path fill="none" stroke="#000000" d="M193.5,-36.1686C193.5,-43.869 193.5,-53.0257 193.5,-61.5834"/>
<polygon fill="#000000" stroke="#000000" points="193.5,-71.5867 189.0001,-61.5867 193.5,-66.5867 193.5001,-61.5867 193.5001,-61.5867 193.5001,-61.5867 193.5,-66.5867 198.0001,-61.5868 193.5,-71.5867 193.5,-71.5867"/>
</g>
<!-- 1 -->
<g id="node2" class="node">
<title>1</title>
<polygon fill="none" stroke="#000000" points="426,-252 355,-252 355,-216 426,-216 426,-252"/>
<text text-anchor="middle" x="390.5" y="-230.3" font-family="Times,serif" font-size="14.00" fill="#000000">contour</text>
</g>
<!-- 5 -->
<g id="node6" class="node">
<title>5</title>
<polygon fill="none" stroke="#000000" points="395,-468 276,-468 276,-432 395,-432 395,-468"/>
<text text-anchor="middle" x="335.5" y="-446.3" font-family="Times,serif" font-size="14.00" fill="#000000">mesh_calculus</text>
</g>
<!-- 1&#45;&gt;5 -->
<g id="edge2" class="edge">
<title>1&#45;&gt;5</title>
<path fill="none" stroke="#000000" d="M406.9281,-252.011C414.8025,-261.8711 423.398,-274.7559 427.5,-288 432.2338,-303.2837 431.7552,-308.5762 427.5,-324 416.4502,-364.0525 385.6096,-401.3461 362.6635,-424.8061"/>
<polygon fill="#000000" stroke="#000000" points="355.526,-431.9228 359.43,-421.6754 359.0667,-428.3924 362.6074,-424.862 362.6074,-424.862 362.6074,-424.862 359.0667,-428.3924 365.7847,-428.0487 355.526,-431.9228 355.526,-431.9228"/>
</g>
<!-- 2 -->
<g id="node3" class="node">
<title>2</title>
<polygon fill="none" stroke="#000000" points="375.5,-396 295.5,-396 295.5,-360 375.5,-360 375.5,-396"/>
<text text-anchor="middle" x="335.5" y="-374.3" font-family="Times,serif" font-size="14.00" fill="#000000">integrals</text>
</g>
<!-- 2&#45;&gt;5 -->
<g id="edge3" class="edge">
<title>2&#45;&gt;5</title>
<path fill="none" stroke="#000000" d="M335.5,-396.1686C335.5,-403.869 335.5,-413.0257 335.5,-421.5834"/>
<polygon fill="#000000" stroke="#000000" points="335.5,-431.5867 331.0001,-421.5867 335.5,-426.5867 335.5001,-421.5867 335.5001,-421.5867 335.5001,-421.5867 335.5,-426.5867 340.0001,-421.5868 335.5,-431.5867 335.5,-431.5867"/>
</g>
<!-- 3 -->
<g id="node4" class="node">
<title>3</title>
<polygon fill="none" stroke="#000000" points="343,-180 222,-180 222,-144 343,-144 343,-180"/>
<text text-anchor="middle" x="282.5" y="-158.3" font-family="Times,serif" font-size="14.00" fill="#000000">line_conductor</text>
</g>
<!-- 3&#45;&gt;1 -->
<g id="edge4" class="edge">
<title>3&#45;&gt;1</title>
<path fill="none" stroke="#000000" d="M309.753,-180.1686C323.4389,-189.2926 340.1915,-200.461 354.8827,-210.2551"/>
<polygon fill="#000000" stroke="#000000" points="363.2558,-215.8372 352.4391,-214.0344 359.0955,-213.0636 354.9352,-210.2901 354.9352,-210.2901 354.9352,-210.2901 359.0955,-213.0636 357.4314,-206.5459 363.2558,-215.8372 363.2558,-215.8372"/>
</g>
<!-- 7 -->
<g id="node8" class="node">
<title>7</title>
<polygon fill="none" stroke="#000000" points="337,-252 198,-252 198,-216 337,-216 337,-252"/>
<text text-anchor="middle" x="267.5" y="-230.3" font-family="Times,serif" font-size="14.00" fill="#000000">mesh_impedance</text>
</g>
<!-- 3&#45;&gt;7 -->
<g id="edge5" class="edge">
<title>3&#45;&gt;7</title>
<path fill="none" stroke="#000000" d="M278.7149,-180.1686C277.1106,-187.869 275.203,-197.0257 273.4201,-205.5834"/>
<polygon fill="#000000" stroke="#000000" points="271.3361,-215.5867 268.9703,-204.8791 272.3559,-210.6918 273.3757,-205.7969 273.3757,-205.7969 273.3757,-205.7969 272.3559,-210.6918 277.7811,-206.7148 271.3361,-215.5867 271.3361,-215.5867"/>
</g>
<!-- 13 -->
<g id="node14" class="node">
<title>13</title>
<polygon fill="none" stroke="#000000" points="179.5,-252 125.5,-252 125.5,-216 179.5,-216 179.5,-252"/>
<text text-anchor="middle" x="152.5" y="-230.3" font-family="Times,serif" font-size="14.00" fill="#000000">viz</text>
</g>
<!-- 3&#45;&gt;13 -->
<g id="edge6" class="edge">
<title>3&#45;&gt;13</title>
<path fill="none" stroke="#000000" d="M249.6955,-180.1686C230.9945,-190.5261 207.5368,-203.5181 188.3517,-214.1437"/>
<polygon fill="#000000" stroke="#000000" points="179.594,-218.9941 186.1617,-210.2125 183.968,-216.5716 188.3419,-214.149 188.3419,-214.149 188.3419,-214.149 183.968,-216.5716 190.5222,-218.0856 179.594,-218.9941 179.594,-218.9941"/>
</g>
<!-- 4 -->
<g id="node5" class="node">
<title>4</title>
<polygon fill="none" stroke="#000000" points="419,-324 296,-324 296,-288 419,-288 419,-324"/>
<text text-anchor="middle" x="357.5" y="-302.3" font-family="Times,serif" font-size="14.00" fill="#000000">line_magnetics</text>
</g>
<!-- 4&#45;&gt;2 -->
<g id="edge7" class="edge">
<title>4&#45;&gt;2</title>
<path fill="none" stroke="#000000" d="M351.9485,-324.1686C349.5697,-331.9537 346.7362,-341.2271 344.0967,-349.8653"/>
<polygon fill="#000000" stroke="#000000" points="341.1263,-359.5867 339.7449,-348.7082 342.5874,-354.805 344.0485,-350.0232 344.0485,-350.0232 344.0485,-350.0232 342.5874,-354.805 348.3521,-351.3382 341.1263,-359.5867 341.1263,-359.5867"/>
</g>
<!-- 12 -->
<g id="node13" class="node">
<title>12</title>
<polygon fill="none" stroke="#000000" points="290.5,-540 236.5,-540 236.5,-504 290.5,-504 290.5,-540"/>
<text text-anchor="middle" x="263.5" y="-518.3" font-family="Times,serif" font-size="14.00" fill="#000000">utils</text>
</g>
<!-- 5&#45;&gt;12 -->
<g id="edge8" class="edge">
<title>5&#45;&gt;12</title>
<path fill="none" stroke="#000000" d="M317.3314,-468.1686C308.7848,-476.7152 298.4443,-487.0557 289.1198,-496.3802"/>
<polygon fill="#000000" stroke="#000000" points="281.9133,-503.5867 285.8024,-493.3336 285.4488,-500.0512 288.9844,-496.5156 288.9844,-496.5156 288.9844,-496.5156 285.4488,-500.0512 292.1664,-499.6976 281.9133,-503.5867 281.9133,-503.5867"/>
</g>
<!-- 6&#45;&gt;1 -->
<g id="edge9" class="edge">
<title>6&#45;&gt;1</title>
<path fill="none" stroke="#000000" d="M260.2254,-100.024C291.1379,-107.6206 326.4759,-120.8922 351.5,-144 369.2917,-160.4293 379.3515,-186.3786 384.7794,-206.201"/>
<polygon fill="#000000" stroke="#000000" points="387.212,-215.9255 380.4197,-207.3166 385.9986,-211.075 384.7852,-206.2245 384.7852,-206.2245 384.7852,-206.2245 385.9986,-211.075 389.1506,-205.1324 387.212,-215.9255 387.212,-215.9255"/>
</g>
<!-- 6&#45;&gt;3 -->
<g id="edge10" class="edge">
<title>6&#45;&gt;3</title>
<path fill="none" stroke="#000000" d="M215.9585,-108.1686C226.9205,-117.0368 240.2699,-127.8363 252.1265,-137.4282"/>
<polygon fill="#000000" stroke="#000000" points="260.0487,-143.8372 249.4439,-141.0462 256.1615,-140.6924 252.2742,-137.5477 252.2742,-137.5477 252.2742,-137.5477 256.1615,-140.6924 255.1045,-134.0491 260.0487,-143.8372 260.0487,-143.8372"/>
</g>
<!-- 6&#45;&gt;5 -->
<g id="edge11" class="edge">
<title>6&#45;&gt;5</title>
<path fill="none" stroke="#000000" d="M260.3252,-102.6633C296.4122,-111.1844 340.9309,-124.4897 377.5,-144 432.627,-173.4112 485.5,-171.518 485.5,-234 485.5,-234 485.5,-234 485.5,-306 485.5,-362.4512 429.5298,-403.6676 385.9679,-427.1976"/>
<polygon fill="#000000" stroke="#000000" points="376.8852,-431.9494 383.6599,-423.3264 381.3156,-429.6316 385.7459,-427.3137 385.7459,-427.3137 385.7459,-427.3137 381.3156,-429.6316 387.8319,-431.3011 376.8852,-431.9494 376.8852,-431.9494"/>
</g>
<!-- 6&#45;&gt;7 -->
<g id="edge12" class="edge">
<title>6&#45;&gt;7</title>
<path fill="none" stroke="#000000" d="M194.2751,-108.3155C195.7611,-127.2985 200.0672,-157.3129 212.5,-180 218.3692,-190.71 227.0439,-200.6469 235.7778,-209.0007"/>
<polygon fill="#000000" stroke="#000000" points="243.3993,-215.914 232.9691,-212.5284 239.6958,-212.5547 235.9924,-209.1953 235.9924,-209.1953 235.9924,-209.1953 239.6958,-212.5547 239.0158,-205.8623 243.3993,-215.914 243.3993,-215.914"/>
</g>
<!-- 8 -->
<g id="node9" class="node">
<title>8</title>
<polygon fill="none" stroke="#000000" points="163,-324 28,-324 28,-288 163,-288 163,-324"/>
<text text-anchor="middle" x="95.5" y="-302.3" font-family="Times,serif" font-size="14.00" fill="#000000">mesh_magnetics</text>
</g>
<!-- 6&#45;&gt;8 -->
<g id="edge13" class="edge">
<title>6&#45;&gt;8</title>
<path fill="none" stroke="#000000" d="M179.7693,-108.2042C162.5686,-131.847 133.3162,-174.9608 116.5,-216 108.3124,-235.9815 102.9295,-259.8283 99.6653,-277.9536"/>
<polygon fill="#000000" stroke="#000000" points="97.983,-287.8919 95.2152,-277.2811 98.8175,-282.962 99.6521,-278.0322 99.6521,-278.0322 99.6521,-278.0322 98.8175,-282.962 104.089,-278.7833 97.983,-287.8919 97.983,-287.8919"/>
</g>
<!-- 9 -->
<g id="node10" class="node">
<title>9</title>
<polygon fill="none" stroke="#000000" points="591,-396 514,-396 514,-360 591,-360 591,-396"/>
<text text-anchor="middle" x="552.5" y="-374.3" font-family="Times,serif" font-size="14.00" fill="#000000">sphtools</text>
</g>
<!-- 6&#45;&gt;9 -->
<g id="edge14" class="edge">
<title>6&#45;&gt;9</title>
<path fill="none" stroke="#000000" d="M260.2159,-93.3115C339.695,-98.6576 465.9648,-112.0392 499.5,-144 556.5471,-198.369 558.222,-300.1798 555.2109,-349.6163"/>
<polygon fill="#000000" stroke="#000000" points="554.4692,-359.891 550.701,-349.593 554.8293,-354.904 555.1893,-349.917 555.1893,-349.917 555.1893,-349.917 554.8293,-354.904 559.6776,-350.241 554.4692,-359.891 554.4692,-359.891"/>
</g>
<!-- 10 -->
<g id="node11" class="node">
<title>10</title>
<polygon fill="none" stroke="#000000" points="89,-180 12,-180 12,-144 89,-144 89,-180"/>
<text text-anchor="middle" x="50.5" y="-158.3" font-family="Times,serif" font-size="14.00" fill="#000000">suhtools</text>
</g>
<!-- 6&#45;&gt;10 -->
<g id="edge15" class="edge">
<title>6&#45;&gt;10</title>
<path fill="none" stroke="#000000" d="M157.4151,-108.1686C138.7011,-117.5911 115.6568,-129.1938 95.76,-139.2117"/>
<polygon fill="#000000" stroke="#000000" points="86.5734,-143.8372 93.4814,-135.3207 91.0393,-141.5886 95.5051,-139.34 95.5051,-139.34 95.5051,-139.34 91.0393,-141.5886 97.5289,-143.3593 86.5734,-143.8372 86.5734,-143.8372"/>
</g>
<!-- 6&#45;&gt;13 -->
<g id="edge16" class="edge">
<title>6&#45;&gt;13</title>
<path fill="none" stroke="#000000" d="M188.3073,-108.2377C181.2834,-132.9072 168.6892,-177.1402 160.4646,-206.0269"/>
<polygon fill="#000000" stroke="#000000" points="157.6505,-215.9104 156.061,-205.0603 159.0197,-211.1015 160.389,-206.2926 160.389,-206.2926 160.389,-206.2926 159.0197,-211.1015 164.717,-207.5249 157.6505,-215.9104 157.6505,-215.9104"/>
</g>
<!-- 7&#45;&gt;2 -->
<g id="edge17" class="edge">
<title>7&#45;&gt;2</title>
<path fill="none" stroke="#000000" d="M268.5418,-252.1743C270.2453,-271.0422 274.7266,-300.9638 286.5,-324 291.7931,-334.3566 299.5981,-344.2346 307.4303,-352.6437"/>
<polygon fill="#000000" stroke="#000000" points="314.5595,-359.925 304.348,-355.928 311.0615,-356.3524 307.5634,-352.7797 307.5634,-352.7797 307.5634,-352.7797 311.0615,-356.3524 310.7788,-349.6315 314.5595,-359.925 314.5595,-359.925"/>
</g>
<!-- 7&#45;&gt;5 -->
<g id="edge18" class="edge">
<title>7&#45;&gt;5</title>
<path fill="none" stroke="#000000" d="M265.6281,-252.2114C263.2487,-283.5171 262.0209,-348.7242 286.5,-396 291.8479,-406.3283 299.6684,-416.1984 307.498,-424.6089"/>
<polygon fill="#000000" stroke="#000000" points="314.6202,-431.8938 304.4117,-427.8892 311.1248,-428.3186 307.6294,-424.7433 307.6294,-424.7433 307.6294,-424.7433 311.1248,-428.3186 310.8471,-421.5975 314.6202,-431.8938 314.6202,-431.8938"/>
</g>
<!-- 7&#45;&gt;8 -->
<g id="edge19" class="edge">
<title>7&#45;&gt;8</title>
<path fill="none" stroke="#000000" d="M224.0971,-252.1686C200.9909,-261.841 172.3962,-273.8109 148.0423,-284.0056"/>
<polygon fill="#000000" stroke="#000000" points="138.5908,-287.962 146.0775,-279.9496 143.203,-286.0313 147.8152,-284.1006 147.8152,-284.1006 147.8152,-284.1006 143.203,-286.0313 149.5528,-288.2516 138.5908,-287.962 138.5908,-287.962"/>
</g>
<!-- 7&#45;&gt;12 -->
<g id="edge20" class="edge">
<title>7&#45;&gt;12</title>
<path fill="none" stroke="#000000" d="M264.5115,-252.437C262.9749,-262.8463 261.2672,-276.1134 260.5,-288 255.7233,-362.0054 259.2835,-449.4398 261.7203,-493.5297"/>
<polygon fill="#000000" stroke="#000000" points="262.3099,-503.7706 257.2425,-494.0458 262.0225,-498.7789 261.735,-493.7871 261.735,-493.7871 261.735,-493.7871 262.0225,-498.7789 266.2276,-493.5284 262.3099,-503.7706 262.3099,-503.7706"/>
</g>
<!-- 8&#45;&gt;2 -->
<g id="edge21" class="edge">
<title>8&#45;&gt;2</title>
<path fill="none" stroke="#000000" d="M155.7523,-324.0757C195.7756,-336.0827 247.7038,-351.6611 285.4477,-362.9843"/>
<polygon fill="#000000" stroke="#000000" points="295.2079,-365.9124 284.3365,-367.349 290.4187,-364.4756 285.6296,-363.0388 285.6296,-363.0388 285.6296,-363.0388 290.4187,-364.4756 286.9227,-358.7286 295.2079,-365.9124 295.2079,-365.9124"/>
</g>
<!-- 8&#45;&gt;5 -->
<g id="edge22" class="edge">
<title>8&#45;&gt;5</title>
<path fill="none" stroke="#000000" d="M125.8962,-324.2377C169.2661,-350.2596 248.9153,-398.0492 296.5565,-426.6339"/>
<polygon fill="#000000" stroke="#000000" points="305.3506,-431.9104 294.4604,-430.6241 301.0632,-429.3379 296.7757,-426.7654 296.7757,-426.7654 296.7757,-426.7654 301.0632,-429.3379 299.0909,-422.9067 305.3506,-431.9104 305.3506,-431.9104"/>
</g>
<!-- 8&#45;&gt;12 -->
<g id="edge23" class="edge">
<title>8&#45;&gt;12</title>
<path fill="none" stroke="#000000" d="M101.077,-324.1798C111.6573,-356.3008 137.2501,-423.8606 177.5,-468 191.4319,-483.2781 210.6485,-495.8912 227.3835,-505.0745"/>
<polygon fill="#000000" stroke="#000000" points="236.3762,-509.8186 225.4318,-509.1326 231.9539,-507.4856 227.5315,-505.1525 227.5315,-505.1525 227.5315,-505.1525 231.9539,-507.4856 229.6313,-501.1724 236.3762,-509.8186 236.3762,-509.8186"/>
</g>
<!-- 9&#45;&gt;5 -->
<g id="edge24" class="edge">
<title>9&#45;&gt;5</title>
<path fill="none" stroke="#000000" d="M513.7268,-391.2147C508.9377,-392.8332 504.1079,-394.4589 499.5,-396 466.9219,-406.8953 430.6471,-418.8571 400.5136,-428.7472"/>
<polygon fill="#000000" stroke="#000000" points="390.9583,-431.8815 399.0576,-424.4888 395.7092,-430.3231 400.4601,-428.7647 400.4601,-428.7647 400.4601,-428.7647 395.7092,-430.3231 401.8627,-433.0405 390.9583,-431.8815 390.9583,-431.8815"/>
</g>
<!-- 9&#45;&gt;12 -->
<g id="edge25" class="edge">
<title>9&#45;&gt;12</title>
<path fill="none" stroke="#000000" d="M525.8438,-396.0643C496.6364,-415.385 448.0033,-446.1858 403.5,-468 369.4972,-484.6672 328.9708,-499.817 300.2923,-509.7989"/>
<polygon fill="#000000" stroke="#000000" points="290.6726,-513.1081 298.6649,-505.5998 295.4007,-511.4816 300.1288,-509.8551 300.1288,-509.8551 300.1288,-509.8551 295.4007,-511.4816 301.5926,-514.1104 290.6726,-513.1081 290.6726,-513.1081"/>
</g>
<!-- 10&#45;&gt;8 -->
<g id="edge26" class="edge">
<title>10&#45;&gt;8</title>
<path fill="none" stroke="#000000" d="M56.1993,-180.2377C63.9085,-204.9072 77.7313,-249.1402 86.7584,-278.0269"/>
<polygon fill="#000000" stroke="#000000" points="89.847,-287.9104 82.569,-279.7078 88.3556,-283.138 86.8642,-278.3656 86.8642,-278.3656 86.8642,-278.3656 88.3556,-283.138 91.1593,-277.0233 89.847,-287.9104 89.847,-287.9104"/>
</g>
<!-- 10&#45;&gt;13 -->
<g id="edge27" class="edge">
<title>10&#45;&gt;13</title>
<path fill="none" stroke="#000000" d="M76.2389,-180.1686C89.0437,-189.2073 104.6909,-200.2524 118.4719,-209.9802"/>
<polygon fill="#000000" stroke="#000000" points="126.7693,-215.8372 116.0045,-213.7467 122.6845,-212.9537 118.5996,-210.0703 118.5996,-210.0703 118.5996,-210.0703 122.6845,-212.9537 121.1947,-206.3939 126.7693,-215.8372 126.7693,-215.8372"/>
</g>
<!-- 11 -->
<g id="node12" class="node">
<title>11</title>
<polygon fill="none" stroke="#000000" points="117,-36 0,-36 0,0 117,0 117,-36"/>
<text text-anchor="middle" x="58.5" y="-14.3" font-family="Times,serif" font-size="14.00" fill="#000000">thermal_noise</text>
</g>
<!-- 11&#45;&gt;6 -->
<g id="edge28" class="edge">
<title>11&#45;&gt;6</title>
<path fill="none" stroke="#000000" d="M92.5662,-36.1686C110.1533,-45.5484 131.7916,-57.0888 150.5168,-67.0756"/>
<polygon fill="#000000" stroke="#000000" points="159.4447,-71.8372 148.5035,-71.1018 155.0329,-69.4842 150.6212,-67.1312 150.6212,-67.1312 150.6212,-67.1312 155.0329,-69.4842 152.7388,-63.1606 159.4447,-71.8372 159.4447,-71.8372"/>
</g>
<!-- 11&#45;&gt;10 -->
<g id="edge29" class="edge">
<title>11&#45;&gt;10</title>
<path fill="none" stroke="#000000" d="M57.4868,-36.2377C56.1223,-60.799 53.6804,-104.7526 52.0752,-133.6459"/>
<polygon fill="#000000" stroke="#000000" points="51.505,-143.9104 47.5667,-133.6761 51.7824,-138.9181 52.0598,-133.9258 52.0598,-133.9258 52.0598,-133.9258 51.7824,-138.9181 56.5528,-134.1754 51.505,-143.9104 51.505,-143.9104"/>
</g>
</g>
</svg>
